<svg width="51px" height="51px" viewBox="0 0 51 51" version="1.1" xmlns="http://www.w3.org/2000/svg" xmlns:xlink="http://www.w3.org/1999/xlink">
    <g stroke="none" stroke-width="1" fill="none" fill-rule="evenodd">
        <g transform="translate(-65.000000, -1087.000000)" fill="#FFFFFF" fill-rule="nonzero">
            <g transform="translate(0.000000, 648.000000)">
                <g transform="translate(15.000000, 360.000000)">
                    <g transform="translate(24.000000, 56.000000)">
                        <g transform="translate(26.000000, 23.000000)">
                            <path d="M2.79068607,2.7965 C3.13084424,2.48198435 3.65501855,2.48198435 3.99517672,2.7965 C4.32322257,3.13168569 4.32322257,3.66831431 3.99517672,4.0035 C3.66068788,4.33222928 3.12517491,4.33222928 2.79068607,4.0035 C2.71219827,3.92366286 2.65148798,3.82806221 2.61255717,3.723 C2.52202652,3.5172216 2.52202652,3.2827784 2.61255717,3.077 C2.65354637,2.97297588 2.7140085,2.87776602 2.79068607,2.7965 Z M5.61530146,2.618 C5.93158143,2.48884958 6.29411795,2.55884158 6.53987526,2.7965 C6.69473293,2.95948154 6.78257132,3.17498217 6.78587723,3.4 C6.78786684,3.74532531 6.581181,4.05754304 6.26291155,4.18996531 C5.9446421,4.32238758 5.57805594,4.24869096 5.33538462,4.0035 C5.00733876,3.66831431 5.00733876,3.13168569 5.33538462,2.7965 C5.41505577,2.71784869 5.51045767,2.65701191 5.61530146,2.618 Z M8.16,2.618 C8.47670241,2.49328341 8.83678042,2.56280076 9.0845738,2.7965 C9.23943147,2.95948154 9.32726986,3.17498217 9.33056133,3.4 C9.33285247,3.62613004 9.24422126,3.8436674 9.08464738,4.00357373 C8.9250735,4.16348005 8.7079884,4.25229591 8.48232848,4.25 C8.37148374,4.24865701 8.26197651,4.22555483 8.16,4.182 C8.05724567,4.13888023 7.96258287,4.07851476 7.88008316,4.0035 C7.5520373,3.66831431 7.5520373,3.13168569 7.88008316,2.7965 C7.96118023,2.71966268 8.05619215,2.65907459 8.16,2.618 Z M11.027027,14.45 L22.9022869,14.45 L22.9022869,16.15 L11.027027,16.15 L11.027027,14.45 Z M11.027027,19.55 L22.9022869,19.55 L22.9022869,21.25 L11.027027,21.25 L11.027027,19.55 Z M11.027027,24.65 L27.1434511,24.65 L27.1434511,26.35 L11.027027,26.35 L11.027027,24.65 Z M11.027027,29.75 L22.0540541,29.75 L22.0540541,31.45 L11.027027,31.45 L11.027027,29.75 Z M11.027027,34.85 L17.8128898,34.85 L17.8128898,36.55 L11.027027,36.55 L11.027027,34.85 Z M11.027027,39.95 L16.1164241,39.95 L16.1164241,41.65 L11.027027,41.65 L11.027027,39.95 Z M47.6460873,10.2 C48.9598663,10.1995215 50.1444716,10.9924201 50.6471856,12.2087421 C51.1498995,13.4250642 50.871646,14.8250939 49.9422536,15.7556 L42.4116424,23.3019 L42.4116424,48.45 C42.4116424,49.8583261 41.2723421,51 39.8669439,51 L2.54469854,51 C1.13930035,51 7.38964445e-13,49.8583261 7.38964445e-13,48.45 L7.38964445e-13,2.55 C7.38964445e-13,1.14167389 1.13930035,2.84217094e-14 2.54469854,2.84217094e-14 L39.8669439,2.84217094e-14 C41.2723421,2.84217094e-14 42.4116424,1.14167389 42.4116424,2.55 L42.4116424,14.0981 L45.349921,11.1537 C45.9572937,10.540968 46.7842425,10.1974994 47.6460873,10.2 Z M1.6964657,2.55 L1.6964657,5.1 L40.7151767,5.1 L40.7151767,2.55 C40.7151767,2.08055796 40.3354099,1.7 39.8669439,1.7 L2.54469854,1.7 C2.07623248,1.7 1.6964657,2.08055796 1.6964657,2.55 Z M40.7151767,48.45 L40.7151767,25.0019 L35.6257796,30.1019 L35.6257796,46.75 L6.78586279,46.75 L6.78586279,9.35 L26.6463867,9.35 L35.6257796,18.3481 L35.6257796,20.8981 L40.7151767,15.7981 L40.7151767,6.8 L1.6964657,6.8 L1.6964657,48.45 C1.6964657,48.919442 2.07623248,49.3 2.54469854,49.3 L39.8669439,49.3 C40.3354099,49.3 40.7151767,48.919442 40.7151767,48.45 Z M20.4644657,36.091 L22.9022869,33.6481 L33.9293139,22.5981 L33.9293139,19.55 L25.4469854,19.55 L25.4469854,11.05 L8.48232848,11.05 L8.48232848,45.05 L33.9293139,45.05 L33.9293139,31.8019 L27.4946195,38.25 L25.0567983,40.6929 L18.1682994,42.99385 L20.4644657,36.091 Z M22.9022869,36.0519 L21.9471767,37.009 L20.8504116,40.30615 L24.1407069,39.2071 L25.095817,38.25 L22.9022869,36.0519 Z M27.1434511,12.2519 L27.1434511,17.85 L32.7299127,17.85 L27.1434511,12.2519 Z M26.2952183,37.0481 L46.3016383,17 L44.1081081,14.8019 L24.1016881,34.85 L26.2952183,37.0481 Z M48.7428524,14.5537 C49.1488429,14.1639752 49.3126583,13.5846458 49.1710387,13.0394289 C49.0294191,12.494212 48.6045285,12.0684363 48.0604452,11.9265216 C47.5163618,11.784607 46.9382368,11.9487637 46.5493222,12.3556 L45.3075094,13.6 L47.5010395,15.7981 L48.7428524,14.5537 Z"></path>
                        </g>
                    </g>
                </g>
            </g>
        </g>
    </g>
</svg>