<svg width="48px" height="48px" viewBox="0 0 48 48" version="1.1" xmlns="http://www.w3.org/2000/svg" xmlns:xlink="http://www.w3.org/1999/xlink">
    <g stroke="none" stroke-width="1" fill="none" fill-rule="evenodd">
        <g transform="translate(-63.000000, -1464.000000)" fill="#FFFFFF" fill-rule="nonzero">
            <g transform="translate(0.000000, 648.000000)">
                <g transform="translate(15.000000, 736.000000)">
                    <g transform="translate(24.000000, 56.000000)">
                        <g transform="translate(24.000000, 24.000000)">
                            <path d="M47.2966902,23.296875 C47.6850012,23.296875 48,23.6116875 48,24 C48,24.3883125 47.6850012,24.703125 47.2966902,24.703125 L35.9755782,24.703125 L35.9755782,26.3027812 L39.030035,26.3027812 C39.418346,26.3027812 39.7331573,26.6175937 39.7331573,27.0059062 C39.7331573,27.3942187 39.418346,27.7090312 39.030035,27.7090312 L35.9755782,27.7090312 L35.9755782,29.308875 L42.1999914,29.308875 C42.4943653,28.43625 43.3199245,27.805875 44.2906082,27.805875 C45.5070097,27.805875 46.4967246,28.7955 46.4967246,30.012 C46.4967246,31.2285 45.5071035,32.218125 44.2906082,32.218125 C43.3199245,32.218125 42.4942715,31.58775 42.1999914,30.715125 L35.9755782,30.715125 L35.9755782,32.2665 C35.9755782,32.5798125 35.9362971,32.8914375 35.8588599,33.1925625 C35.7772977,33.51 35.4916426,33.7208437 35.1784251,33.7208437 C35.1203941,33.7208437 35.0615193,33.713625 35.002832,33.6985312 C34.6268022,33.601875 34.4003031,33.218625 34.496959,32.8425 C34.5449588,32.6556562 34.5693337,32.461875 34.5693337,32.2665937 L34.5693337,15.7333125 C34.5693337,14.4635625 33.5363065,13.4304375 32.2664677,13.4304375 L15.7333448,13.4304375 C15.5378768,13.4304375 15.3440026,13.4549062 15.156972,13.503 C14.7809423,13.5998437 14.3975063,13.3734375 14.3007566,12.9973125 C14.204007,12.6211875 14.4304124,12.2378437 14.8064422,12.1410937 C15.107941,12.0635625 15.419846,12.0241875 15.7334385,12.0241875 L17.2848075,12.0241875 L17.2848075,9.90365625 C17.2848075,9.48928125 17.1234644,9.09965625 16.830403,8.8066875 L12.2045148,4.1806875 C11.8965473,4.33321875 11.5607361,4.4113125 11.2243624,4.4113125 C10.6594271,4.4113125 10.0944918,4.19625 9.6643685,3.76621875 C8.80421561,2.90596875 8.80421561,1.506375 9.6643685,0.64621875 C10.5245214,-0.21384375 11.9241097,-0.2139375 12.7843563,0.64621875 C13.4705099,1.33246875 13.6074781,2.36128125 13.1988234,3.186375 L17.8247116,7.81228125 C18.3833657,8.37084375 18.691052,9.113625 18.691052,9.90365625 L18.691052,12.0241875 L20.2907957,12.0241875 L20.2907957,8.96971875 C20.2907957,8.58140625 20.605607,8.26659375 20.993918,8.26659375 C21.382229,8.26659375 21.6970402,8.58140625 21.6970402,8.96971875 L21.6970402,12.0241875 L23.296784,12.0241875 L23.296784,0.703125 C23.296784,0.3148125 23.6115953,-8.52651283e-14 23.9999063,-8.52651283e-14 C24.3882172,-8.52651283e-14 24.7030285,0.3148125 24.7030285,0.703125 L24.7030285,12.0241875 L26.302866,12.0241875 L26.302866,8.96971875 C26.302866,8.58140625 26.6176773,8.26659375 27.0059883,8.26659375 C27.3942992,8.26659375 27.7091105,8.58140625 27.7091105,8.96971875 L27.7091105,12.0241875 L29.3088543,12.0241875 L29.3088543,5.79975 C28.4362327,5.505375 27.8058601,4.6798125 27.8058601,3.709125 C27.8058601,2.49271875 28.795575,1.503 30.0119765,1.503 C31.228378,1.503 32.2180929,2.492625 32.2180929,3.709125 C32.2180929,4.6798125 31.5877204,5.50546875 30.7150988,5.79975 L30.7150988,12.0242812 L32.2664677,12.0242812 C34.311616,12.0242812 35.9755782,13.6881562 35.9755782,15.7334062 L35.9755782,17.2847812 L38.0961949,17.2847812 C38.5106621,17.2847812 38.9002855,17.1233437 39.1932532,16.830375 L43.8175476,12.2060625 C43.6674544,11.90475 43.5875797,11.5707187 43.5875797,11.2242187 C43.5875797,10.6349062 43.8170788,10.0809375 44.233796,9.66421875 C44.6505131,9.24759375 45.2044797,9.01809375 45.7937899,9.01809375 C46.3831001,9.01809375 46.9371604,9.24759375 47.3537838,9.6643125 C47.7705009,10.0810312 48,10.635 48,11.2243125 C48,11.813625 47.7705009,12.3675937 47.3537838,12.7843125 C46.9370667,13.2009375 46.3831001,13.4304375 45.7937899,13.4304375 C45.4472912,13.4304375 45.1132613,13.3505625 44.81195,13.2004687 L40.1876555,17.8247812 C39.6290952,18.3834375 38.8863169,18.6910312 38.0962887,18.6910312 L35.975672,18.6910312 L35.975672,20.290875 L39.0301288,20.290875 C39.4184398,20.290875 39.733251,20.6056875 39.733251,20.994 C39.733251,21.3823125 39.4184398,21.697125 39.0301288,21.697125 L35.975672,21.697125 L35.975672,23.296875 L47.2966902,23.296875 Z M45.2281046,10.6587187 C45.0769802,10.80975 44.9938242,11.0106562 44.9938242,11.2243125 C44.9938242,11.4379687 45.0769802,11.6387812 45.2281046,11.7899062 C45.379229,11.9410312 45.5800407,12.0241875 45.7936961,12.0241875 C46.0073515,12.0241875 46.2081632,11.9410312 46.3592877,11.7899062 C46.5104121,11.6387812 46.593568,11.4379687 46.593568,11.2243125 C46.593568,11.0106562 46.5104121,10.8098437 46.3592877,10.6587187 C46.2081632,10.5075937 46.0073515,10.4244375 45.7936961,10.4244375 C45.5800407,10.4244375 45.379229,10.5075937 45.2281046,10.6587187 Z M11.7898602,2.77190625 C12.1017652,2.46 12.1017652,1.95253125 11.7898602,1.640625 C11.6339546,1.48471875 11.4291116,1.40671875 11.2242687,1.40671875 C11.019332,1.40671875 10.8145828,1.484625 10.6585834,1.640625 C10.3466783,1.9524375 10.3466783,2.45990625 10.6585834,2.7718125 C10.9705821,3.08371875 11.4780489,3.083625 11.7898602,2.77190625 Z M30.0119765,4.509 C30.4529748,4.509 30.8118484,4.150125 30.8118484,3.709125 C30.8118484,3.268125 30.4530685,2.90925 30.0119765,2.90925 C29.5708845,2.90925 29.2121046,3.268125 29.2121046,3.709125 C29.2121046,4.150125 29.5709782,4.509 30.0119765,4.509 Z M44.290702,29.2122187 C43.84961,29.2122187 43.4907364,29.571 43.4908301,30.0120937 C43.4908301,30.4530937 43.8497037,30.8119687 44.290702,30.8119687 C44.7317003,30.8119687 45.0905739,30.4531875 45.0905739,30.0120937 C45.0905739,29.5710937 44.731794,29.2122187 44.290702,29.2122187 Z M38.3355378,44.233875 C39.1956906,45.0940313 39.1956906,46.493625 38.3355378,47.3537813 C37.9055082,47.7839063 37.3404791,47.998875 36.7755438,47.998875 C36.2106086,47.998875 35.6455795,47.7839063 35.2155499,47.3537813 C34.5293026,46.6675313 34.3923344,45.6387188 34.8009891,44.813625 L30.1751009,40.1877188 C29.6164468,39.6291563 29.3087605,38.886375 29.3087605,38.0963438 L29.3087605,35.9758125 L27.7090168,35.9758125 L27.7090168,39.0302813 C27.7090168,39.4185938 27.3942055,39.7334063 27.0058945,39.7334063 C26.6175835,39.7334063 26.3027723,39.4185938 26.3027723,39.0302813 L26.3027723,35.9758125 L24.7030285,35.9758125 L24.7030285,47.296875 C24.7030285,47.6851875 24.3882172,48 23.9999063,48 C23.6115953,48 23.296784,47.6851875 23.296784,47.296875 L23.296784,35.975625 L21.697134,35.975625 L21.697134,39.0300938 C21.697134,39.4184063 21.3823227,39.7332188 20.9940117,39.7332188 C20.6057008,39.7332188 20.2908895,39.4184063 20.2908895,39.0300938 L20.2908895,35.975625 L18.6911457,35.975625 L18.6911457,42.2000625 C19.5637673,42.4944375 20.1941399,43.32 20.1941399,44.2906875 C20.1941399,45.5070938 19.204425,46.4968125 17.9880235,46.4968125 C16.771622,46.4968125 15.7819071,45.5071875 15.7819071,44.2906875 C15.7819071,43.32 16.4122796,42.4943438 17.2849012,42.2000625 L17.2849012,35.975625 L15.7335323,35.975625 C13.688384,35.975625 12.0244218,34.31175 12.0244218,32.2665 L12.0244218,30.715125 L9.90380506,30.715125 C9.48933793,30.715125 9.09971445,30.8765625 8.80674685,31.1695313 L4.18245241,35.7938438 C4.33254558,36.0951563 4.41242026,36.4291875 4.41242026,36.7756875 C4.41242026,37.365 4.18292116,37.9189688 3.76620404,38.3356875 C3.34948692,38.7523125 2.79552033,38.9818125 2.20621013,38.9818125 C1.61689993,38.9818125 1.0628396,38.7524063 0.646216226,38.3356875 C0.229499104,37.9189688 1.42108547e-12,37.3649063 1.42108547e-12,36.7756875 C1.42108547e-12,36.1864688 0.229499104,35.6324063 0.646028726,35.2156875 C1.06274585,34.7990625 1.61671243,34.5695625 2.20602263,34.5695625 C2.55252128,34.5695625 2.88655122,34.6494375 3.18786255,34.7995313 L7.81215698,30.1752188 C8.3707173,29.6165625 9.11349565,29.3089688 9.90352381,29.3089688 L12.0241405,29.3089688 L12.0241405,27.709125 L8.96968371,27.709125 C8.58137273,27.709125 8.26656146,27.3943125 8.26656146,27.006 C8.26656146,26.6176875 8.58137273,26.302875 8.96968371,26.302875 L12.0241405,26.302875 L12.0241405,24.703125 L0.703122253,24.703125 C0.31481127,24.703125 1.42108547e-12,24.3883125 1.42108547e-12,24 C1.42108547e-12,23.6116875 0.31481127,23.296875 0.703122253,23.296875 L12.0241405,23.296875 L12.0241405,21.697125 L8.96968371,21.697125 C8.58137273,21.697125 8.26656146,21.3823125 8.26656146,20.994 C8.26656146,20.6056875 8.58137273,20.290875 8.96968371,20.290875 L12.0241405,20.290875 L12.0241405,18.6910313 L5.79972734,18.6910313 C5.50535349,19.5636563 4.67979422,20.1940313 3.70911051,20.1940313 C2.49270901,20.1940313 1.50299413,19.2044063 1.50299413,17.9879063 C1.50299413,16.7714063 2.49261526,15.7817813 3.70911051,15.7817813 C4.67979422,15.7817813 5.50544724,16.4121563 5.79972734,17.2847813 L12.0242343,17.2847813 L12.0242343,15.7334063 C12.0242343,15.4197188 12.0635154,15.1079063 12.1411401,14.8065938 C12.2378897,14.4305625 12.6212319,14.2041563 12.9973555,14.301 C13.3733853,14.3978438 13.5997906,14.7811875 13.5029473,15.1572188 C13.4548537,15.3440625 13.4304788,15.5379375 13.4304788,15.7334063 L13.4304788,32.2665938 C13.4304788,33.5363438 14.463506,34.5694688 15.7333448,34.5694688 L32.2664677,34.5694688 C32.4619357,34.5694688 32.6558099,34.5450938 32.8427467,34.497 C33.2190577,34.40025 33.6022125,34.6266563 33.6989621,35.0026875 C33.7957117,35.3788125 33.5693064,35.7621563 33.1932766,35.8589063 C32.8918715,35.9364375 32.5800602,35.9758125 32.2664677,35.9758125 L30.7150988,35.9758125 L30.7150988,38.0963438 C30.7150988,38.5107188 30.8764419,38.9003438 31.1695032,39.1933125 L35.7953914,43.8193125 C36.620482,43.4106563 37.6493842,43.547625 38.3355378,44.233875 Z M3.70911051,18.7877813 C4.15020254,18.7877813 4.50907614,18.429 4.50898241,17.9879063 C4.50898241,17.5469063 4.15010879,17.1880313 3.70911051,17.1880313 C3.26811223,17.1880313 2.90923864,17.5468125 2.90923864,17.9879063 C2.90923864,18.4289063 3.26801848,18.7877813 3.70911051,18.7877813 Z M2.77170792,37.3412813 C2.92283233,37.19025 3.00598826,36.9893438 3.00598826,36.7756875 C3.00598826,36.5620313 2.92283233,36.3612188 2.77170792,36.2100937 C2.62058351,36.0589687 2.4197718,35.9758125 2.20611638,35.9758125 C1.99246097,35.9758125 1.79164925,36.0589687 1.64052484,36.2100937 C1.48940043,36.3612188 1.40624451,36.5620313 1.40624451,36.7756875 C1.40624451,36.9893438 1.48940043,37.1901563 1.64052484,37.3412813 C1.79164925,37.4924063 1.99246097,37.5755625 2.20611638,37.5755625 C2.4197718,37.5755625 2.62058351,37.4924063 2.77170792,37.3412813 Z M18.7877079,44.290875 C18.7877079,43.849875 18.4288343,43.491 17.987836,43.491 C17.5468377,43.491 17.1879641,43.849875 17.1879641,44.290875 C17.1879641,44.731875 17.546744,45.09075 17.987836,45.09075 C18.428928,45.09075 18.7877079,44.731875 18.7877079,44.290875 Z M37.3412291,46.3594687 C37.6530404,46.0475625 37.6530404,45.5400938 37.3412291,45.2282813 C37.1853235,45.072375 36.9804805,44.994375 36.7756376,44.994375 C36.5707946,44.994375 36.3659517,45.072375 36.2099523,45.2282813 C35.8980473,45.5400938 35.8980473,46.0475625 36.2099523,46.3594687 C36.5218573,46.6712812 37.0293241,46.671375 37.3412291,46.3594687 Z M31.4665958,22.1213437 C31.4665958,22.9640625 31.1071597,23.7681562 30.4887872,24.3758437 C31.1072535,24.9835312 31.4665958,25.7875312 31.4665958,26.6303437 C31.4665958,27.7761562 30.8130671,28.8373125 29.7689775,29.443125 C29.6652904,30.98925 28.2553896,32.2183125 26.5363026,32.2183125 C25.5097441,32.2183125 24.5939039,31.7796562 24,31.0973437 C23.4060961,31.7796562 22.4902559,32.2183125 21.4636974,32.2183125 C19.6773919,32.2183125 18.2241788,30.8914687 18.2241788,29.2605937 C18.2241788,29.2600312 18.2241788,29.2594687 18.2241788,29.2589062 C17.1720267,28.5664687 16.5332167,27.4501875 16.5334041,26.2546875 C16.5334041,25.4686875 16.8041531,24.7304062 17.2739325,24.12225 C16.7934657,23.549625 16.5334041,22.85625 16.5334041,22.1213437 C16.5334041,20.6175 17.6332749,19.3437187 19.1389877,18.9299062 C19.0944567,18.7460625 19.0697068,18.5569687 19.0697068,18.36375 C19.0697068,16.9400625 20.3332643,15.7817812 21.8864145,15.7817812 C22.72763,15.7817812 23.4834395,16.122 24,16.65975 C24.5165605,16.122 25.2722763,15.7817812 26.1135855,15.7817812 C27.6666419,15.7817812 28.9302932,16.9400625 28.9302932,18.36375 C28.9302932,18.5569687 28.9055433,18.7460625 28.8610123,18.9299062 C30.3667251,19.3438125 31.4665958,20.6175937 31.4665958,22.1213437 Z M28.9781056,24.9975937 C28.7474815,24.8759062 28.603107,24.6365625 28.603107,24.37575 C28.603107,24.1149375 28.7474815,23.8755937 28.9781056,23.7539062 C29.6556342,23.39625 30.0600701,22.7859375 30.0600701,22.1211562 C30.0600701,21.0635625 29.0575115,20.2024687 27.8216101,20.1944062 C27.8153288,20.1945937 27.8091414,20.1954375 27.8028601,20.1954375 C27.7961102,20.1954375 27.7894539,20.1947812 27.782704,20.1945937 C27.4416428,20.1972187 27.1146441,20.263125 26.8107078,20.3912812 C26.4528654,20.5422187 26.0404608,20.3743125 25.8896176,20.0165625 C25.7387745,19.6587187 25.9064926,19.2463125 26.2643349,19.0954687 C26.6315522,18.9405937 27.0183632,18.8439375 27.4182991,18.8061562 C27.4783927,18.6846562 27.5237675,18.5369062 27.5237675,18.3636562 C27.5237675,17.715375 26.8909575,17.1879375 26.1133042,17.1879375 C25.335651,17.1879375 24.702841,17.715375 24.702841,18.3636562 C24.702841,18.7519687 24.3880297,19.0667812 23.9997188,19.0667812 C23.6114078,19.0667812 23.2965965,18.7519687 23.2965965,18.3636562 C23.2965965,17.715375 22.6637865,17.1879375 21.8861333,17.1879375 C21.10848,17.1879375 20.47567,17.715375 20.47567,18.3636562 C20.47567,18.6698437 20.6156382,18.8993437 20.732919,19.038 C20.733294,19.038375 20.7335753,19.0388437 20.7339503,19.0393125 C20.746044,19.05375 20.7572002,19.06875 20.7680751,19.0840312 C20.7710751,19.08825 20.7745438,19.0922812 20.7774501,19.0965 C20.7830751,19.1048437 20.78795,19.1136562 20.7932938,19.1222812 C20.9742306,19.4135625 20.920137,19.80075 20.6506068,20.0289375 C20.5185136,20.1407812 20.3571705,20.1954375 20.1966711,20.1954375 C20.1904836,20.1954375 20.1842024,20.1945937 20.1779212,20.1944062 C18.9420198,20.2025625 17.9394612,21.0635625 17.9390862,22.1211562 C17.9390862,22.5035625 18.0735232,22.8705 18.3229909,23.1838125 C18.7077394,22.9469062 19.1416127,22.7664375 19.6128921,22.6583437 C19.9912657,22.5715312 20.3686079,22.807875 20.4554201,23.1864375 C20.5422323,23.5649062 20.3057957,23.9421562 19.9273284,24.0289687 C18.7566767,24.2975625 17.9390862,25.21275 17.9390862,26.2545 C17.9390862,26.8320937 18.1983039,27.3846562 18.6423022,27.8046562 C18.7628642,27.610125 18.9078949,27.427125 19.076363,27.2595937 C19.3517994,26.9858437 19.7969227,26.9871562 20.0706716,27.2625937 C20.3444205,27.5380312 20.343108,27.98325 20.0676716,28.257 C19.7854852,28.5375 19.6300483,28.8939375 19.6300483,29.2605937 C19.6300483,30.1160625 20.4524201,30.8121562 21.4633224,30.8121562 C22.474131,30.8121562 23.2965027,30.1160625 23.2965027,29.2605937 L23.2965027,27.7575937 C23.2965027,27.1124062 22.8149109,26.5275 22.0981012,26.3022187 C21.7276964,26.1857812 21.5217284,25.7910937 21.6381655,25.4205937 C21.7545088,25.0502812 22.1490072,24.8442187 22.5196933,24.9606562 C22.8003797,25.048875 23.0598787,25.1717812 23.2965027,25.3202812 L23.2965027,21.4168125 C23.2965027,21.0285 23.611314,20.7136875 23.999625,20.7136875 C24.387936,20.7136875 24.7027473,21.0285 24.7027473,21.4168125 L24.7027473,22.3149375 C25.2243702,21.9867187 25.8558678,21.7939687 26.5359276,21.7939687 C26.9242386,21.7939687 27.2390498,22.1087812 27.2390498,22.4970937 C27.2390498,22.8854062 26.9242386,23.2002187 26.5359276,23.2002187 C25.525119,23.2002187 24.7027473,23.896125 24.7027473,24.7515937 L24.7027473,29.2606875 C24.7027473,30.1161562 25.525119,30.8121562 26.5359276,30.8121562 C27.5468299,30.8121562 28.3692017,30.1161562 28.3692017,29.2606875 C28.3692017,28.6154062 27.8875161,28.0305 27.1707064,27.8052187 C26.8003016,27.688875 26.5942399,27.2941875 26.7106769,26.9236875 C26.827114,26.5532812 27.2218937,26.3473125 27.5922047,26.4636562 C28.4176702,26.7229687 29.0710114,27.2678437 29.4406662,27.9523125 C29.8297272,27.5987812 30.0600701,27.126 30.0600701,26.6303437 C30.0600701,25.9655625 29.6556342,25.3551562 28.9781056,24.9975937 Z"></path>
                        </g>
                    </g>
                </g>
            </g>
        </g>
    </g>
</svg>