<svg width="48px" height="48px" viewBox="0 0 48 48" version="1.1" xmlns="http://www.w3.org/2000/svg" xmlns:xlink="http://www.w3.org/1999/xlink">
    <g stroke="none" stroke-width="1" fill="none" fill-rule="evenodd">
        <g transform="translate(-63.000000, -2216.000000)" fill="#FFFFFF" fill-rule="nonzero">
            <g transform="translate(0.000000, 648.000000)">
                <g transform="translate(15.000000, 1488.000000)">
                    <g transform="translate(24.000000, 56.000000)">
                        <g transform="translate(24.000000, 24.000000)">
                            <g>
                                <path d="M33.75,9.75 C34.1641875,9.75 34.5,10.0858125 34.5,10.5 L34.5,18 C34.5,18.4141875 34.1641875,18.75 33.75,18.75 L26.25,18.75 C25.8358125,18.75 25.5,18.4141875 25.5,18 L25.5,10.5 C25.5,10.0858125 25.8358125,9.75 26.25,9.75 L33.75,9.75 Z M27,17.25 L31.9399688,17.25 L27,12.3100312 L27,17.25 Z M33,16.18875 L33,11.25 L28.06125,11.25 L33,16.18875 Z M33.75,20.25 C34.1641875,20.25 34.5,20.5858125 34.5,21 L34.5,28.5 C34.5,28.9141875 34.1641875,29.25 33.75,29.25 L26.25,29.25 C25.8358125,29.25 25.5,28.9141875 25.5,28.5 L25.5,21 C25.5,20.5858125 25.8358125,20.25 26.25,20.25 L33.75,20.25 Z M27,27.75 L31.9392188,27.75 L27,22.8107812 L27,27.75 Z M33,26.6895 L33,21.75 L28.0605,21.75 L33,26.6895 Z M25.5,30.75 L31.5,30.75 L31.5,32.25 L25.5,32.25 L25.5,30.75 Z M33,30.75 L34.5,30.75 L34.5,32.25 L33,32.25 L33,30.75 Z M25.5,33.75 L34.5,33.75 L34.5,35.25 L25.5,35.25 L25.5,33.75 Z M25.5,36.75 L34.5,36.75 L34.5,38.25 L25.5,38.25 L25.5,36.75 Z M12.75,17.25 L20.25,17.25 L20.25,18.75 L12.75,18.75 L12.75,17.25 Z M12.75,23.25 L20.25,23.25 L20.25,24.75 L12.75,24.75 L12.75,23.25 Z M12.75,29.25 L20.25,29.25 L20.25,30.75 L12.75,30.75 L12.75,29.25 Z M43.5,5.25 C43.545,5.25 48,5.31825 48,11.25 L48,40.5 C48,43.35975 45.15,44.68425 43.65,44.985 C43.6006875,44.9954063 43.5504375,45.0004688 43.5,45 L38.25,45 L38.25,46.5 C38.25,47.3284688 37.5784688,48 36.75,48 L11.25,48 C10.4215313,48 9.75,47.3284688 9.75,46.5 L9.75,45 L4.5,45 C4.4495625,45.0004688 4.3993125,44.9954063 4.35,44.985 C2.85,44.68425 0,43.35975 0,40.5 L0,11.25 C0,5.31825 4.455,5.25 4.5,5.25 C4.9141875,5.25 5.25,5.5858125 5.25,6 L5.25,9 L9.75,9 L9.75,1.5 C9.75,0.67153125 10.4215313,0 11.25,0 L36.75,0 C37.5784688,0 38.25,0.67153125 38.25,1.5 L38.25,9 L42.75,9 L42.75,6 C42.75,5.5858125 43.0858125,5.25 43.5,5.25 Z M1.5,11.25 L1.5,37.3905 C2.16309375,36.8410313 2.92753125,36.4269375 3.75,36.17175 L3.75,6.9 C2.85,7.2105 1.5,8.19 1.5,11.25 Z M9.75,43.5 L9.75,10.5 L5.25,10.5 L5.25,36.75 C5.25009375,37.1064375 4.99921875,37.41375 4.65,37.485 C4.52325,37.51125 1.5,38.16 1.5,40.5 C1.5,42.66825 4.13475,43.39275 4.5825,43.5 L9.75,43.5 Z M11.25,8.25 L11.25,13.6446562 L19.88625,8.25 L11.25,8.25 Z M21.75,8.85440625 L13.11225,14.25 L21.75,14.25 L21.75,8.85440625 Z M11.25,15.75 L11.25,20.25 L21.75,20.25 L21.75,15.75 L11.25,15.75 Z M11.25,21.75 L11.25,26.25 L21.75,26.25 L21.75,21.75 L11.25,21.75 Z M11.25,27.75 L11.25,32.25 L21.75,32.25 L21.75,27.75 L11.25,27.75 Z M11.25,33.75 L11.25,39.817875 L20.0799375,33.75 L11.25,33.75 Z M21.75,34.422375 L12.9059063,40.5 L21.75,40.5 L21.75,34.422375 Z M36.75,46.5 L36.75,42 L11.25,42 L11.25,46.5 L36.75,46.5 Z M36.75,40.5 L36.75,8.25 L23.25,8.25 L23.25,40.5 L36.75,40.5 Z M36.75,6.75 L36.75,1.5 L11.25,1.5 L11.25,6.75 L36.75,6.75 Z M43.419,43.5 C43.88175,43.39125 46.5,42.68025 46.5,40.5 C46.5,38.142 43.3845,37.49175 43.35,37.485 C43.0007813,37.41375 42.7499063,37.1064375 42.75,36.75 L42.75,10.5 L38.25,10.5 L38.25,43.5 L43.419,43.5 Z M46.5,37.3905 L46.5,11.25 C46.5,8.1915 45.14025,7.21125 44.25,6.9 L44.25,36.17175 C45.0724688,36.4269375 45.8369063,36.8410313 46.5,37.3905 Z M18.75,3.75 L24.75,3.75 L24.75,5.25 L18.75,5.25 L18.75,3.75 Z M26.25,3.75 L27.75,3.75 L27.75,5.25 L26.25,5.25 L26.25,3.75 Z M29.25,3.75 L30.75,3.75 L30.75,5.25 L29.25,5.25 L29.25,3.75 Z"></path>
                            </g>
                        </g>
                    </g>
                </g>
            </g>
        </g>
    </g>
</svg>