<svg width="45px" height="40px" viewBox="0 0 45 40" version="1.1" xmlns="http://www.w3.org/2000/svg" xmlns:xlink="http://www.w3.org/1999/xlink">
    <g stroke="none" stroke-width="1" fill="none" fill-rule="evenodd">
        <g transform="translate(-294.000000, -7504.000000)" fill="#1D1D1D" fill-rule="nonzero">
            <g transform="translate(0.000000, 6904.000000)">
                <g transform="translate(100.000000, 600.000000)">
                    <g transform="translate(194.000000, 0.000000)">
                        <path d="M0.08356054,14.6794954 L8.32776713,14.6794954 L20.4371249,37.9231171 L0.08356054,14.6794954 Z M44.9205546,14.6794954 L24.5669902,37.9231171 L36.676348,14.6794954 L44.9205546,14.6794954 Z M22.500363,40 L9.30900009,14.6794954 L35.691726,14.6794954 L22.500363,40 Z M9.08750199,13.072485 L9.73424565,1.2069905 L21.3761568,4.32009983e-11 L9.08750199,13.072485 Z M35.9143242,13.072485 L23.6256694,-4.53859172e-13 L35.2675805,1.2069905 L35.9143242,13.072485 Z M36.8212305,13.800203 L36.1888789,2.20063779 L45,13.800203 L36.8212305,13.800203 Z M8.1787721,13.800203 L2.68824962e-11,13.800203 L8.81102116,2.20063412 L8.1787721,13.800203 Z M35.3989012,13.800203 L9.60182493,13.800203 L22.500363,0.0789334446 L35.3989012,13.800203 Z"></path>
                    </g>
                </g>
            </g>
        </g>
    </g>
</svg>