<svg width="41px" height="40px" viewBox="0 0 41 40" version="1.1" xmlns="http://www.w3.org/2000/svg" xmlns:xlink="http://www.w3.org/1999/xlink">
    <g stroke="none" stroke-width="1" fill="none" fill-rule="evenodd">
        <g transform="translate(-491.000000, -7504.000000)" fill="#1D1D1D" fill-rule="nonzero">
            <g transform="translate(0.000000, 6904.000000)">
                <g transform="translate(100.000000, 600.000000)">
                    <g transform="translate(391.000000, 0.000000)">
                        <path d="M2.60188919,9.40660706 C-1.02504927,14.687439 -0.574399694,21.5577253 2.19669988,27.1668577 L2.4002828,27.567224 L2.53073399,27.8194548 L2.60979532,27.9655885 L2.75408224,28.2258267 L3.0189377,28.686248 L3.16915422,28.9384787 L3.47551687,29.4249238 L3.60596806,29.6291107 L4.05068803,30.279706 L4.1376555,30.3998159 L4.54284481,30.9463159 L4.69503786,31.1424954 L5.09034451,31.6089222 L5.2326549,31.7830816 L5.75445967,32.3876347 L5.7860842,32.4216659 L6.3157951,32.9881842 L6.48577696,33.1623436 L6.90875507,33.5627099 L7.08268999,33.7288619 L7.66181422,34.263351 L7.77250008,34.3574371 L8.30023445,34.8078492 L8.49788777,34.9840104 L8.93667815,35.3323291 L9.17386213,35.5325123 L9.66799544,35.892842 L9.89727329,36.0569922 L10.3755943,36.3772853 L10.5831303,36.5174135 L11.3342129,36.9818384 L11.5417489,37.1019483 L12.1050609,37.4222414 L12.4173531,37.5823879 L12.8205659,37.7945821 L12.913463,37.8406242 L13.0775152,37.9206975 L13.7159355,38.2209722 L13.8503397,38.2810272 L14.5954927,38.5933129 L14.7773338,38.6653789 L15.4790031,38.9296206 L15.5679471,38.96165 L16.3506542,39.2218881 L16.5404014,39.2779394 L17.3310147,39.5101518 C34.872747,42.7531192 39.9682497,28.8323817 39.9682497,28.8323817 C35.6890552,34.477547 28.1090504,35.9689116 20.8947041,34.311395 C20.6219425,34.25134 20.3570871,34.1632594 20.0922316,34.0831862 L19.8945783,34.0231312 C19.6362924,33.9426017 19.3793095,33.8578465 19.1237304,33.7688986 L19.0169976,33.7288619 C18.7877197,33.6487887 18.5623949,33.5607081 18.3350936,33.4726275 L18.1433699,33.3965579 C17.8957798,33.2976756 17.64999,33.1942305 17.406123,33.086274 L17.2598595,33.0202135 L16.6392281,32.7279461 L16.4415748,32.6398655 C16.2794991,32.5597922 16.1213764,32.4757153 15.9612772,32.3916384 L15.6410788,32.2214827 C15.4474627,32.116174 15.2557088,32.0073907 15.0659077,31.8951841 L14.8722074,31.7850834 C14.6195661,31.6340903 14.369177,31.4792645 14.1211248,31.3206584 C14.0519461,31.2766181 13.9867205,31.2285742 13.9195184,31.1845339 L13.3858544,30.8242042 C13.3265584,30.7841675 13.2712155,30.7441309 13.213896,30.7040943 L12.7098801,30.3337554 L12.4865318,30.1635997 L12.0319292,29.80327 L11.8283462,29.6391198 L11.2610812,29.1546766 C11.2413159,29.1346582 11.2215505,29.1206454 11.2017852,29.1026289 C11.0001788,28.9024458 10.8025255,28.7382956 10.6048722,28.5541271 L10.4368669,28.3899769 L10.0079592,27.9655885 L9.83995383,27.7954329 C9.66157173,27.6109539 9.48629388,27.423422 9.31419599,27.2329182 C9.12421014,27.0225807 8.93773079,26.8090218 8.75483709,26.592332 L8.61647977,26.4241782 L8.23303232,25.9437386 L8.094675,25.7435554 L7.65193156,25.1470095 C3.67514672,19.6379688 2.23820707,12.0230011 5.45402662,5.7692789 M13.8799877,4.95853707 C11.2571281,8.76201726 11.3994385,13.9007192 13.4451504,17.9424173 C13.7877556,18.622107 14.1753828,19.277536 14.6053754,19.9042124 C15.0006821,20.4747344 15.4355194,21.1533553 15.9553476,21.6117748 L16.5443545,22.2123243 L16.6985241,22.3664653 L17.2993902,22.9329837 L17.3290382,22.9590075 L18.0307075,23.547546 L18.1888301,23.6736614 L18.9241005,24.214156 L19.4379991,24.5604729 L19.9815458,24.9007842 L20.0606071,24.9468264 L20.5428812,25.2190755 L20.7148396,25.3091579 L21.0508502,25.4853191 L21.1022401,25.5093411 L21.8039094,25.8416451 L21.958079,25.9057037 L22.5510389,26.1419199 L22.7981056,26.2340041 L23.32584,26.4201745 L23.563024,26.5002478 C23.8160202,26.580321 24.0650634,26.7004309 24.3279423,26.7244529 C37.8731245,28.9965319 41,18.4368698 41,18.4368698 C38.1814636,22.548632 32.7222789,24.5104271 26.8974355,22.9810277 L26.1305406,22.7568225 L25.8992862,22.6807529 L25.3656223,22.4925807 L25.1225087,22.4004965 L24.545361,22.1642803 L24.3872383,22.0982199 L23.6816159,21.7659158 L23.32584,21.5657327 L23.122257,21.4596356 L22.5688277,21.1393425 L22.0252811,20.8030348 L21.5113825,20.4567179 L20.7800652,19.9162234 L20.6160129,19.7841025 C18.0465197,17.7462378 16.0442916,14.9797064 15.0817199,11.8007977 C14.0934533,8.52379929 14.2911066,4.84643449 16.0363855,1.86170346 M23.329793,1.63549648 C21.7841441,3.93760291 21.6299745,6.80022221 22.7052085,9.34855394 C23.8357855,12.0510267 26.1562355,14.15295 28.8621095,15.1538658 L29.1981202,15.2739757 L29.3463602,15.3220197 L29.8286343,15.4621479 C37.3078359,16.923485 39.3159937,11.5745908 39.8753526,10.7878709 C38.0964727,13.3782411 35.1316729,14.0008108 31.447415,13.0999865 C31.1474703,13.0197598 30.8507606,12.9276042 30.557975,12.8237337 C30.1993838,12.6951048 29.8477324,12.5474319 29.5044828,12.3813289 C28.8532659,12.0639584 28.2348569,11.6817262 27.6584008,11.2402849 C24.3773556,8.71797696 22.3217611,3.91358093 24.4821119,0"></path>
                    </g>
                </g>
            </g>
        </g>
    </g>
</svg>