<svg width="36px" height="40px" viewBox="0 0 36 40" version="1.1" xmlns="http://www.w3.org/2000/svg" xmlns:xlink="http://www.w3.org/1999/xlink">
    <g stroke="none" stroke-width="1" fill="none" fill-rule="evenodd">
        <g transform="translate(-556.000000, -7504.000000)" fill="#1D1D1D">
            <g transform="translate(0.000000, 6904.000000)">
                <g transform="translate(100.000000, 600.000000)">
                    <g transform="translate(456.000000, 0.000000)">
                        <g>
                            <path d="M23.2969738,11.1592032 C21.4831318,5.85541297 26.7848605,0.169592754 31.1461872,3.46389584e-13 C33.7594589,1.38113958 36.0032661,5.00804427 35.8910757,9.9298045 C35.5486308,15.9934893 31.3135916,21.2193263 26.7049762,26.0339754 C26.447702,20.1630908 25.2177198,16.420744 23.2969738,11.1592032 Z M13.0146395,39.8785162 C12.2851085,33.9582414 14.6575527,28.9079477 17.0123755,25.8285004 C18.1313421,24.382499 18.9912724,23.0632459 19.6462056,21.8481287 C20.8832365,22.3908255 24.2084177,24.1581605 26.0404686,27.0275509 C25.7743836,31.1900116 22.7381954,38.7651546 13.0146395,39.8785162 Z M9.34061084,17.3928378 C1.60182571,15.2000332 -0.307172524,8.31278222 0.0382093101,3.68081733 C7.55320111,0.594824269 15.6408924,3.75579518 20.3105958,10.3443249 C23.5846746,14.9620083 25.634645,20.8822831 26.0505129,26.049209 C23.8043562,23.0459296 20.9672911,21.3059674 17.3537043,19.9432748 C14.8819922,19.0120023 12.5988303,18.3949227 9.34061084,17.3928378 Z"></path>
                        </g>
                    </g>
                </g>
            </g>
        </g>
    </g>
</svg>