<svg version="1.1" id="Слой_1" xmlns="http://www.w3.org/2000/svg" xmlns:xlink="http://www.w3.org/1999/xlink" x="0px" y="0px"
	 width="600px" height="460px" viewBox="0 0 600 460" style="enable-background:new 0 0 600 460;" xml:space="preserve">
<g>
	<g transform="translate(-185.000000, -8622.000000)">
		<g transform="translate(100.000000, 8136.000000)">
			<g transform="translate(80.000000, 164.000000)">
				<g transform="translate(6.000000, 322.000000)">
					<g transform="translate(218.000000, 0.000000)">
						<path  fill="#FFE769" d="M63.7,21.3c0,0,9.5,10.4,0.2,10C54.7,30.8,45,26.3,45,26.3C57,21.5,63.7,21.3,63.7,21.3z"/>
						<g transform="translate(17.500000, 0.000000)">
							
								<g transform="translate(25.000000, 26.500000) rotate(-270.000000) translate(-25.000000, -26.500000) translate(-1.000000, 2.000000)">
								<path  fill="#E63D3A" d="M14.3-16.5c0-1.2,0-2.4,0.1-3.6c-3.5,2-6,6.4-6,11.5c0,2.7,0.7,5.3,1.9,7.4c0.1,0.2,0.3,0.3,0.6,0.3
									c0.1,0,0.2,0,0.2,0c1.7-0.7,3.5-1,5.3-1C15-6.4,14.3-11.4,14.3-16.5z"/>
								<g transform="translate(19.830508, 24.937500)">
									<path  fill="#E63D3A" d="M16.9-44.9c0.1,1.2,0.1,2.4,0.1,3.6c0,5.1-0.8,10.1-2.2,14.6c1.9,0,3.6,0.4,5.3,1c0.1,0,0.2,0,0.2,0
										c0.2,0,0.4-0.1,0.6-0.3c1.3-2.2,1.9-4.7,1.9-7.4C22.9-38.6,20.4-43,16.9-44.9z"/>
									<path  fill="#E63D3A" d="M0.1-25.1v3.4c0,0.4,0.3,0.7,0.7,0.7h9.8c0.4,0,0.7-0.3,0.7-0.7v-3.4H0.1z"/>
								</g>
								<path  fill="#FF4A47" d="M34.5-31.8H16.6c-1.6,4.7-2.5,10-2.5,15.4c0,5.6,0.9,11.1,2.7,16c0.1,0.3,0.3,0.4,0.6,0.4h16.2
									c0.3,0,0.5-0.2,0.6-0.4c1.8-4.8,2.7-10.4,2.7-16C37-21.9,36.1-27.1,34.5-31.8z"/>
								<path  fill="#FF4A47" d="M21.3-31.8v2.4c0,0.4,0.3,0.7,0.7,0.7h7c0.4,0,0.7-0.3,0.7-0.7v-2.4H21.3z"/>
								<path  fill="#E63D3A" d="M25.6-45c-0.1,0-0.3,0-0.4,0.1c-3.3,2.6-6,6.6-8,11.6c-0.2,0.5-0.4,1.1-0.6,1.6h18
									c-0.2-0.5-0.4-1.1-0.6-1.6c-1.9-4.9-4.7-8.9-8-11.6C25.8-45,25.7-45,25.6-45z"/>
								
									<ellipse fill="#E63D3A" transform="matrix(2.535182e-06 1 -1 2.535182e-06 6.9449 -44.1736)"  cx="25.6" cy="-18.6" rx="7.4" ry="7.5"/>
								
									<ellipse transform="matrix(2.535182e-06 1 -1 2.535182e-06 6.9449 -44.1736)" fill="#ffffff" cx="25.6" cy="-18.6" rx="4.8" ry="4.8"/>
								<path  fill="#FFE769" d="M4.1-18.9c-0.2,0-0.3-0.1-0.4-0.3c-0.8-2-1.4-2.6-3.4-3.4c-0.2-0.1-0.3-0.2-0.3-0.4s0.1-0.3,0.3-0.4
									c2-0.8,2.6-1.4,3.4-3.4C3.8-26.9,4-27,4.1-27c0.2,0,0.3,0.1,0.4,0.3c0.8,2,1.4,2.6,3.4,3.4c0.2,0.1,0.3,0.2,0.3,0.4
									s-0.1,0.3-0.3,0.4c-2,0.8-2.6,1.4-3.4,3.4C4.5-19,4.3-18.9,4.1-18.9L4.1-18.9z"/>
								<path  fill="#FFE769" d="M48.4-15.6c-0.1,0-0.3-0.1-0.3-0.2c-0.7-1.7-1.3-2.3-3-3c-0.1-0.1-0.2-0.2-0.2-0.3
									c0-0.1,0.1-0.3,0.2-0.3c1.7-0.7,2.3-1.2,3-3c0.1-0.1,0.2-0.2,0.3-0.2s0.3,0.1,0.3,0.2c0.7,1.7,1.3,2.3,3,3
									c0.1,0.1,0.2,0.2,0.2,0.3c0,0.1-0.1,0.3-0.2,0.3c-1.7,0.7-2.3,1.2-3,3C48.7-15.7,48.5-15.6,48.4-15.6L48.4-15.6z"/>
								<path  fill="#FFE769" d="M44.6-31c-0.2,0-0.3-0.1-0.4-0.3c-0.8-2-1.5-2.6-3.5-3.5c-0.2-0.1-0.3-0.2-0.3-0.4
									c0-0.2,0.1-0.3,0.3-0.4c2-0.8,2.6-1.4,3.5-3.5c0.1-0.2,0.2-0.3,0.4-0.3c0.2,0,0.3,0.1,0.4,0.3c0.8,2,1.5,2.6,3.5,3.5
									c0.2,0.1,0.3,0.2,0.3,0.4c0,0.2-0.1,0.3-0.3,0.4c-2,0.8-2.6,1.4-3.5,3.5C44.9-31.1,44.7-31,44.6-31L44.6-31z"/>
							</g>
						</g>
					</g>
					<path  fill="none" stroke="#0066FF" d="M340.3,26c37.4,0.9,64.4,3.7,81,8.6c60,17.5,87.7,71.2,87.7,117.1c0,58.3-37.8,102.8-115.8,161.2
						c-87.5,65.5-201.4,106.6-274.6,93c-40.4-7.5-73.6-41-73.6-87c0-45.9,35.2-83.1,79-87.9c17.6-1.9,37.1,1.9,54.5,12.2
						c27.9,16.5,39.4,41.3,122.1,91.8c54.4,33.2,125.2,64.7,225.8,78.5c19.6,2.7,43.8,4.2,72.6,4.5"/>
				</g>
			</g>
		</g>
	</g>
</g>
</svg>
