<svg xmlns="http://www.w3.org/2000/svg" width="17" height="16" viewBox="0 0 17 16">
    <g fill="none" fill-rule="nonzero">
        <path fill="#E0E1E4" d="M7.802.373a.651.651 0 0 1 .582-.356.65.65 0 0 1 .582.356l2.087 4.158a.649.649 0 0 0 .49.349l4.667.667a.645.645 0 0 1 .524.434.63.63 0 0 1-.164.654l-3.378 3.237a.632.632 0 0 0-.187.564l.798 4.57a.634.634 0 0 1-.26.625.661.661 0 0 1-.683.049l-4.175-2.158a.659.659 0 0 0-.604 0L3.905 15.68a.66.66 0 0 1-.683-.049.633.633 0 0 1-.259-.624l.798-4.57a.631.631 0 0 0-.187-.565L.196 6.635a.63.63 0 0 1-.164-.654c.076-.231.28-.4.524-.434l4.669-.667a.648.648 0 0 0 .488-.35L7.802.374z"/>
        <path fill="#FF4A47" d="M7.802.373a.651.651 0 0 1 .582-.356l-.001 13.43a.655.655 0 0 0-.302.075L3.905 15.68a.66.66 0 0 1-.683-.049.633.633 0 0 1-.259-.624l.798-4.57a.631.631 0 0 0-.187-.565L.196 6.635a.63.63 0 0 1-.164-.654c.076-.231.28-.4.524-.434l4.669-.667a.648.648 0 0 0 .488-.35L7.802.374z"/>
    </g>
</svg>
