<svg width="17px" height="16px" viewBox="0 0 17 16" version="1.1" xmlns="http://www.w3.org/2000/svg" xmlns:xlink="http://www.w3.org/1999/xlink">
    <g stroke="none" stroke-width="1" fill="none" fill-rule="evenodd">
        <g transform="translate(-667.000000, -6152.000000)" fill="#FF4A47" fill-rule="nonzero">
            <g transform="translate(100.000000, 6004.000000)">
                <g transform="translate(525.000000, 144.000000)">
                    <g transform="translate(0.000000, 4.000000)">
                        <g transform="translate(42.000000, 0.000000)">
                            <g>
                                <path d="M7.80191489,0.372977778 C7.91151064,0.155377778 8.13721277,0.0174222222 8.38389362,0.0174222222 C8.63057447,0.0174222222 8.8566383,0.155377778 8.96587234,0.372977778 L11.0532553,4.5312 C11.1476596,4.71928889 11.3306809,4.84977778 11.5422766,4.88 L16.2104043,5.54666667 C16.4552766,5.58151111 16.6578298,5.75004444 16.7341489,5.9808 C16.8104681,6.21155556 16.7468085,6.46542222 16.5699362,6.63466667 L13.1923617,9.87164444 C13.0393617,10.0181333 12.9695532,10.2293333 13.0053617,10.4362667 L13.8025532,15.0069333 C13.8437872,15.2465778 13.7443191,15.4883556 13.5439362,15.6312889 C13.3439149,15.7735111 13.0795106,15.7923556 12.8603191,15.68 L8.68482979,13.5217778 C8.49602128,13.424 8.26995745,13.424 8.08078723,13.5217778 L3.90529787,15.6796444 C3.68682979,15.7923556 3.42170213,15.7738667 3.22168085,15.6312889 C3.02165957,15.4887111 2.92182979,15.2465778 2.96342553,15.0069333 L3.76061702,10.4362667 C3.79678723,10.2293333 3.72661702,10.0181333 3.57361702,9.87164444 L0.196042553,6.63466667 C0.0191702128,6.46506667 -0.0444893617,6.21155556 0.0318297872,5.9808 C0.108148936,5.75004444 0.31106383,5.58151111 0.55593617,5.54666667 L5.22478723,4.88 C5.43602128,4.84977778 5.61904255,4.71928889 5.71344681,4.53084444 L7.80191489,0.372977778 Z"></path>
                            </g>
                        </g>
                    </g>
                </g>
            </g>
        </g>
    </g>
</svg>