<svg width="10px" height="20px" viewBox="0 0 10 20" version="1.1" xmlns="http://www.w3.org/2000/svg" xmlns:xlink="http://www.w3.org/1999/xlink">
    <g stroke="none" stroke-width="1" fill="none" fill-rule="evenodd">
        <g transform="translate(-1279.000000, -9510.000000)" fill="#FFFFFF">
            <g transform="translate(1268.000000, 9504.000000)">
                <g transform="translate(11.000000, 6.000000)">
                    <path d="M3.96105142,4.90188288 L1.91348239,8.32700347 C1.7696896,8.56753634 1.45626282,8.65011803 1.2094556,8.51250045 L0.263355036,7.98496292 C0.0137791744,7.84580157 -0.0738322772,7.534014 0.0676693819,7.28856589 L4.10329138,0.505894174 C4.39308501,0.0188446718 5.02948076,-0.144948241 5.52472108,0.140052464 C5.67857917,0.228594656 5.80668401,0.354580757 5.89671523,0.505894174 L9.92879612,7.28252009 C10.0736929,7.52604485 9.99041921,7.83898002 9.74279905,7.98148037 C9.74075797,7.98265497 9.73870877,7.98381584 9.73665158,7.98496292 L8.79055101,8.51250045 C8.5437438,8.65011803 8.23031702,8.56753634 8.08652423,8.32700347 L6.03895519,4.90188288 L6.03895519,19.4891157 C6.03895519,19.7712693 5.80637789,20 5.51947925,20 L4.48052736,20 C4.19362872,20 3.96105142,19.7712693 3.96105142,19.4891157 L3.96105142,4.90188288 Z"></path>
                </g>
            </g>
        </g>
    </g>
</svg>