<svg width="108px" height="48px" viewBox="0 0 108 48" version="1.1" xmlns="http://www.w3.org/2000/svg" xmlns:xlink="http://www.w3.org/1999/xlink">
    <g stroke="none" stroke-width="1" fill="none" fill-rule="evenodd">
        <g transform="translate(-100.000000, -7608.000000)" fill="#1D1D1D" fill-rule="nonzero">
            <g transform="translate(100.000000, 7608.000000)">
                <g transform="translate(54.000000, 24.000000) scale(-1, 1) rotate(-180.000000) translate(-54.000000, -24.000000) ">
                    <g>
                        <path d="M16.705729,32.7238532 L21.6728809,13.882596 L25.0877331,13.882596 L29.8964958,30.9130596 L34.6472807,13.882596 L38.0720083,13.882596 L43.9891459,35.565245 L40.1382918,35.565245 L36.2858449,18.9302252 L31.6340259,35.565245 L28.1016251,35.565245 L23.4602124,18.9300132 L19.6940877,35.1442303 C26.3559742,39.7244898 37.0071527,42.690649 49.0098569,42.690649 C60.2527793,42.690649 70.3334903,40.3319735 77.0369391,36.2381987 C69.7199446,43.0973245 56.6008126,47.9171391 41.6007987,47.9193653 C18.6273453,47.9231788 0.00199099723,37.1988344 0,23.9663046 C-0.00194952078,10.7341987 18.6200185,0.00339404503 41.5934718,-8.99319339e-07 C56.5339151,-0.00240066755 69.6189612,4.80173775 76.9548569,11.6129272 C70.2515143,7.54458278 60.2117913,5.22896954 49.0098569,5.22896954 C28.8279409,5.22896954 12.4671468,13.6149404 12.4671468,23.9598411 C12.4671468,27.1260955 13.9998609,30.1088669 16.705729,32.7238532 Z M84.7164543,14.2278146 C85.6675669,14.6277086 86.535217,15.330543 87.3184488,16.3354702 L87.7647507,14.074702 L90.5528901,14.074702 L90.5528901,24.8510728 L82.1738181,24.8510728 L82.1738181,21.5721325 L86.5931948,21.5721325 C86.4619483,20.1798146 86.0001431,19.1171391 85.2061865,18.384 C84.4124423,17.6510728 83.2883518,17.2845563 81.8323223,17.2845563 C80.842133,17.2845563 80.0016667,17.4757086 79.3112419,17.8580132 C78.6201801,18.2403179 78.05994,18.7479735 77.6308403,19.3818278 C77.2016343,20.0154702 76.8891274,20.7287947 76.6927886,21.5210596 C76.496662,22.3131126 76.3987581,23.1289007 76.3987581,23.9683179 C76.3987581,24.8445033 76.4960249,25.6923974 76.6922576,26.5127417 C76.887747,27.3331921 77.199723,28.0648477 77.6289289,28.7085563 C78.0580286,29.3515232 78.6176316,29.8645828 79.307313,30.2467815 C79.9972068,30.6290861 80.8362927,30.8202384 81.8249954,30.8202384 C82.8872853,30.8202384 83.7915697,30.5410331 84.5381671,29.9827285 C85.2839151,29.4244238 85.7875577,28.5870199 86.0488827,27.4711523 L90.2443121,27.4711523 C90.1322853,28.6059868 89.8243444,29.6110199 89.3207018,30.4872053 C88.8172715,31.362649 88.1786657,32.0996026 87.4046722,32.6974305 C86.6305725,33.2950464 85.7637719,33.7482384 84.8034211,34.0570066 C83.842964,34.3650331 82.8504386,34.5194172 81.8249954,34.5194172 C80.2951662,34.5194172 78.9202632,34.2486887 77.6992244,33.7081854 C76.4782918,33.1669404 75.4495568,32.421404 74.6122761,31.4704106 C73.7749954,30.5193113 73.1330979,29.405457 72.6870083,28.1285298 C72.2407064,26.8510728 72.0175023,25.4664901 72.0175023,23.9756291 C72.0175023,22.5213245 72.2414497,21.1642914 72.6890259,19.9058013 C73.1364958,18.6473113 73.7794552,17.5517881 74.6189658,16.6199735 C75.4580517,15.6870993 76.4881671,14.9555497 77.709843,14.4242649 C78.9314127,13.893298 80.306422,13.6272318 81.8362512,13.6272318 C82.805097,13.6272318 83.7654478,13.8276026 84.7164543,14.2278146 Z M97.6741828,34.0149404 L93.2931394,34.0149404 L93.2931394,14.0897483 L107.408726,14.0897483 L107.408726,17.7889272 L97.6741828,17.7889272 L97.6741828,34.0149404 Z M53.6146353,26.4389934 C53.0796676,27.1902517 52.4105863,27.7684768 51.6254432,28.1578808 C50.8181071,28.5584106 49.8820729,28.7613245 48.8435688,28.7613245 C47.6746676,28.7613245 46.6215097,28.5498278 45.7134026,28.1326623 C44.8522299,27.7369007 44.1171006,27.1551788 43.5284026,26.4033907 C42.4388227,25.0121325 41.862867,23.0517616 41.862867,20.7347285 C41.862867,19.7034172 42.0095106,18.7357881 42.2986565,17.8584371 C42.5895014,16.9764238 43.0188135,16.2021722 43.5746999,15.5576159 C44.7434949,14.2023841 46.4097738,13.4859868 48.3934441,13.4859868 C49.4350277,13.4859868 50.2854755,13.594702 50.9928901,13.8182781 C51.6112142,14.013457 52.0220499,14.2663841 52.3585549,14.4881589 C52.7922207,14.7736159 53.1905263,15.1245563 53.5428532,15.530702 C53.8418744,15.8756026 54.1081902,16.2608742 54.3345799,16.6756026 C54.7398938,17.4184901 54.9361265,18.1124238 54.9807248,18.4809536 L55.0103509,18.7246623 L52.1726223,18.7246623 L52.1570129,18.5239735 C52.0854432,17.6040265 50.8753416,15.9604768 48.7194367,15.9604768 C45.6374792,15.9604768 44.9031994,18.1837351 44.8544598,20.141457 L55.1724977,20.141457 L55.1724977,20.3589934 C55.1724977,21.6215099 55.0430563,22.7742517 54.7876777,23.7854305 C54.5265651,24.8198146 54.131976,25.7126358 53.6146353,26.4389934 Z M48.5175762,26.2064106 C50.8034534,26.2064106 52.025554,24.978649 52.248121,22.4548874 L44.8575392,22.4548874 C44.9658495,24.5099868 46.5978301,26.2064106 48.5175762,26.2064106 Z M69.4542659,24.3540132 C69.1794552,25.2300927 68.7743536,26.0020132 68.2507479,26.6485828 C67.70994,27.3160265 67.0540259,27.8351258 66.3013758,28.1914702 C65.5155956,28.5634967 64.6347784,28.752106 63.6835596,28.752106 L63.6800554,28.752106 C62.8024238,28.7379073 62.0010342,28.5469669 61.2986103,28.1843709 C60.7177701,27.8848212 60.1972438,27.4642649 59.7459511,26.930649 L59.7459511,33.5826225 L56.919903,33.5826225 L56.919903,13.8792053 L59.6102447,13.8792053 L59.6102447,15.2202384 C59.8464035,14.911894 60.1498846,14.586596 60.5519067,14.2991258 C61.3149631,13.7534305 62.2589612,13.4768742 63.3576731,13.4768742 C64.5394229,13.4768742 65.5928994,13.7398675 66.4893259,14.2588609 C67.2882733,14.7212715 67.9646814,15.3875497 68.4999677,16.2388344 C68.9672946,16.9820397 69.3229132,17.8573775 69.5565235,18.8406887 C69.7583841,19.690702 69.8652078,20.6208212 69.8652078,21.5303841 C69.8652078,22.5354172 69.7269529,23.485351 69.4542659,24.3540132 Z M66.9149215,21.154649 C66.9149215,19.6077351 66.6031579,18.3113113 66.0129732,17.405457 C65.3846676,16.4403709 64.472844,15.9512583 63.3033056,15.9512583 C61.6121791,15.9512583 59.6374284,17.1313377 59.6374284,20.4570066 C59.6374284,22.0499073 59.834723,23.2754437 60.2404617,24.2042914 C60.8263989,25.5453245 61.8106417,26.1971921 63.2490443,26.1971921 C64.779723,26.1971921 65.8034672,25.5985166 66.3786796,24.3670464 C66.8538643,23.349298 66.9149215,22.1157086 66.9149215,21.154649 Z"></path>
                    </g>
                </g>
            </g>
        </g>
    </g>
</svg>