<?xml version="1.0" standalone="no"?>
<!DOCTYPE svg PUBLIC "-//W3C//DTD SVG 20010904//EN"
 "http://www.w3.org/TR/2001/REC-SVG-20010904/DTD/svg10.dtd">
<svg version="1.0" xmlns="http://www.w3.org/2000/svg"
 width="260.000000pt" height="260.000000pt" viewBox="0 0 260.000000 260.000000"
 preserveAspectRatio="xMidYMid meet">
<metadata>
Created by potrace 1.11, written by Peter Selinger 2001-2013
</metadata>
<g transform="translate(0.000000,260.000000) scale(0.100000,-0.100000)"
fill="#000000" stroke="none">
<path d="M1538 2214 c-55 -29 -60 -62 -67 -451 l-1 -52 -35 21 c-57 33 -159 8
-172 -43 -7 -24 -7 -24 -43 3 -33 24 -85 26 -128 6 -25 -12 -44 -39 -57 -82
-3 -10 -8 -16 -11 -13 -3 3 -19 69 -34 146 -36 177 -35 175 -71 211 -34 34
-73 39 -118 15 -54 -27 -58 -78 -22 -265 13 -63 25 -126 27 -140 3 -14 10 -43
15 -64 6 -21 12 -125 13 -230 3 -197 13 -261 55 -358 50 -115 148 -193 281
-225 37 -9 223 -10 271 -1 92 16 170 73 240 175 27 39 66 116 69 135 0 4 7 28
14 52 21 71 18 174 -7 219 -11 20 -25 37 -29 37 -5 0 -8 6 -7 13 2 10 -6 101
-17 192 -3 17 -6 163 -8 325 -4 353 -8 368 -102 383 -16 2 -42 -1 -56 -9z"/>
</g>
</svg>
