<svg width="12px" height="12px" viewBox="0 0 12 12" version="1.1" xmlns="http://www.w3.org/2000/svg" xmlns:xlink="http://www.w3.org/1999/xlink">
    <g stroke="none" stroke-width="1" fill="none" fill-rule="evenodd">
        <g transform="translate(-1004.000000, -6466.000000)" fill="#4A4D52" fill-rule="nonzero">
            <g transform="translate(100.000000, 6004.000000)">
                <g transform="translate(904.000000, 462.000000)">
                    <g>
                        <path d="M11.7604481,5.42665058 L6.52648714,0.237454375 C6.20715009,-0.0791514583 5.68924965,-0.0791514583 5.3699126,0.237454375 C5.05051013,0.554125073 5.05051013,1.06746631 5.3699126,1.38413701 L9.20777994,5.18917999 L0.817806408,5.18917999 C0.366180997,5.18917999 0,5.55222912 0,6 C0,6.44768979 0.366180997,6.8108038 0.817806408,6.8108038 L9.20777994,6.8108038 L5.37004345,10.6158468 C5.05064098,10.9325175 5.05064098,11.4458587 5.37004345,11.7625294 C5.52967926,11.920735 5.7390377,12 5.94833072,12 C6.15762373,12 6.36691675,11.920735 6.52661798,11.7625294 L11.7604481,6.57333321 C12.0798506,6.25666251 12.0798506,5.74332127 11.7604481,5.42665058 Z"></path>
                    </g>
                </g>
            </g>
        </g>
    </g>
</svg>