<svg width="48px" height="48px" viewBox="0 0 48 48" version="1.1" xmlns="http://www.w3.org/2000/svg" xmlns:xlink="http://www.w3.org/1999/xlink">
    <g stroke="none" stroke-width="1" fill="none" fill-rule="evenodd">
        <g transform="translate(-61.000000, -1840.000000)" fill="#FFFFFF" fill-rule="nonzero">
            <g transform="translate(0.000000, 648.000000)">
                <g transform="translate(15.000000, 1112.000000)">
                    <g transform="translate(24.000000, 56.000000)">
                        <g transform="translate(22.000000, 24.000000)">
                            <g>
                                <g>
                                    <path d="M5.15244094,20.9248125 L8.64056693,18.6614062 C8.69366929,18.6219375 8.77313386,18.6087187 8.83946457,18.6087187 C9.11792126,18.6087187 9.4760315,18.8982187 9.4760315,19.26675 C9.4760315,19.4247187 9.39647244,19.5694687 9.27713386,19.6483125 L6.49190551,21.4643437 L9.27713386,23.2802812 C9.39656693,23.3460937 9.4760315,23.4908437 9.4760315,23.6618437 C9.4760315,24.030375 9.11792126,24.3066562 8.83946457,24.3066562 C8.77313386,24.3066562 8.6935748,24.2934375 8.64056693,24.2539687 L5.15244094,21.99075 C4.95354331,21.8592187 4.86056693,21.6354375 4.86056693,21.4644375 C4.86056693,21.2933437 4.95354331,21.0565312 5.15244094,20.9248125 Z M16.8498898,15.4769063 C16.8498898,15.5559375 16.8366614,15.62175 16.7967874,15.6874688 L11.9293228,25.3200938 C11.8496693,25.4780625 11.6773228,25.570125 11.4916535,25.570125 C11.1865512,25.570125 10.9743307,25.3200938 10.9743307,25.0832812 C10.9743307,25.0174687 10.9876535,24.9516563 11.0141102,24.8859375 L15.8948031,15.2138438 C15.9744567,15.04275 16.1203465,14.9770312 16.2926929,14.9770312 C16.5581102,14.9770312 16.8498898,15.1742813 16.8498898,15.4769063 Z M22.6586457,21.99075 L19.1704252,24.2541563 C19.1173228,24.293625 19.0510866,24.3068438 18.9847559,24.3068438 C18.6929764,24.3068438 18.348189,24.0305625 18.348189,23.6620313 C18.348189,23.4910313 18.427748,23.3462813 18.5338583,23.2804688 L21.332315,21.4645313 L18.5338583,19.6485 C18.427748,19.5695625 18.348189,19.4248125 18.348189,19.2669375 C18.348189,18.8984062 18.6929764,18.6089062 18.9847559,18.6089062 C19.0510866,18.6089062 19.1173228,18.622125 19.1704252,18.6615937 L22.6586457,20.925 C22.8575433,21.056625 22.9504252,21.2935313 22.9504252,21.464625 C22.9504252,21.6354375 22.8707717,21.8592188 22.6586457,21.99075 Z M27.7540157,28.046625 C27.7540157,29.6915625 26.4051969,31.0298437 24.7474016,31.0298437 L3.00935433,31.0298437 C1.35146457,31.0298437 0.00264566929,29.6915625 0.00264566929,28.046625 L0.00264566929,13.0433437 C0.00264566929,11.3984062 1.35146457,10.060125 3.00935433,10.060125 L24.7473071,10.060125 C26.4051969,10.060125 27.7540157,11.3984062 27.7540157,13.0433437 L27.7540157,28.046625 Z M1.41987402,28.046625 C1.41987402,28.9161563 2.13288189,29.6235938 3.00935433,29.6235938 L24.7473071,29.6235938 C25.623685,29.6235938 26.3366929,28.9161563 26.3366929,28.046625 L26.3366929,13.0433438 C26.3366929,12.1738125 25.623685,11.466375 24.7473071,11.466375 L3.00925984,11.466375 C2.13288189,11.466375 1.41987402,12.1738125 1.41987402,13.0433438 L1.41987402,28.046625 Z M38.0849764,34.5049687 C40.1191181,34.5049687 41.7738898,36.1468125 41.7738898,38.1650625 C41.7738898,40.1833125 40.1190236,41.82525 38.0849764,41.82525 C36.1864252,41.82525 34.6183937,40.3949063 34.4177953,38.5632188 C34.403622,38.5077188 34.396063,38.4496875 34.396063,38.3897813 C34.396063,38.366625 34.3972913,38.3436563 34.3994646,38.3210625 C34.3971969,38.2693125 34.396063,38.2172813 34.396063,38.1650625 C34.396063,36.1469063 36.0509291,34.5049687 38.0849764,34.5049687 Z M38.0849764,35.9112187 C36.9978898,35.9112187 36.0866457,36.6728437 35.8649764,37.6866562 L40.3050709,37.6866562 C40.0833071,36.6729375 39.172063,35.9112187 38.0849764,35.9112187 Z M38.0849764,40.419 C39.0044409,40.419 39.7980472,39.874125 40.1550236,39.0928125 L36.0148346,39.0928125 C36.372,39.8742188 37.1656063,40.419 38.0849764,40.419 Z M46.0207559,35.720625 C47.1106772,35.720625 47.9973543,36.600375 47.9973543,37.6817813 L47.9973543,38.6483438 C47.9973543,39.72975 47.1105827,40.6095938 46.0206614,40.6095938 L45.6874961,40.6095938 C45.5608819,41.011125 45.4016693,41.4030938 45.2124094,41.7796875 L45.4386142,42.0040312 C45.811937,42.374625 46.0175433,42.8671875 46.0175433,43.390875 C46.0175433,43.9145625 45.811937,44.407125 45.4387087,44.777625 L44.7497953,45.4611563 C44.3762835,45.8315625 43.8798425,46.0355625 43.3520315,46.0355625 C42.8240315,46.0355625 42.327685,45.8315625 41.9542677,45.4611563 L41.7689764,45.277125 C41.3776063,45.4824375 40.9685669,45.6554062 40.5488504,45.7935937 L40.5488504,46.03875 C40.5488504,47.1201563 39.6620787,48 38.5721575,48 L37.5978898,48 C36.5079685,48 35.6211969,47.1201563 35.6211969,46.03875 L35.6211969,45.8337187 C35.1865512,45.6988125 34.7632441,45.5266875 34.3576063,45.32025 L34.2157795,45.4610625 C33.8423622,45.8314687 33.3460157,46.0354687 32.8180157,46.0354687 C32.2902047,46.0354687 31.7937638,45.8314687 31.4203465,45.4611563 L30.7314331,44.7774375 C30.4758425,44.52375 30.2988661,44.212875 30.2126929,43.8739688 L14.8818898,43.8739688 C13.2166299,43.8739688 11.8618583,42.5297813 11.8618583,40.8775313 L11.8618583,33.139125 C11.8618583,32.7507188 12.1790551,32.436 12.5705197,32.436 C12.9619843,32.436 13.2791811,32.7507188 13.2791811,33.139125 L13.2791811,37.6864688 L28.1725984,37.6864688 L28.1725984,37.6816875 C28.1725984,36.6002813 29.0593701,35.7204375 30.1492913,35.7204375 L30.396378,35.7204375 C30.5355591,35.3040938 30.7099843,34.8983438 30.9168189,34.50975 L30.7314331,34.3259063 C30.3582047,33.9555938 30.1525039,33.463125 30.1525039,32.9391563 C30.1525039,32.4150938 30.3582047,31.9225313 30.7315276,31.552125 L31.4203465,30.868875 C31.7936693,30.4984688 32.2901102,30.294375 32.8180157,30.294375 C33.3461102,30.294375 33.8425512,30.4984688 34.215874,30.8689688 L34.4418898,31.0932188 C34.8214488,30.9054375 35.2165984,30.7475625 35.6211969,30.6218438 L35.6211969,30.291375 C35.6211969,29.209875 36.5079685,28.3300313 37.5978898,28.3300313 L38.5721575,28.3300313 C39.6620787,28.3300313 40.5488504,29.209875 40.5488504,30.291375 L40.5488504,30.6620625 C40.6369134,30.6910313 40.7245039,30.7215938 40.811622,30.7536563 L40.811622,6.26053125 L13.2791811,6.26053125 L13.2791811,7.95075 C13.2791811,8.33915625 12.9619843,8.653875 12.5705197,8.653875 C12.1790551,8.653875 11.8618583,8.33915625 11.8618583,7.95075 L11.8618583,2.9964375 C11.8618583,1.3441875 13.2166299,0 14.8818898,0 L39.2089134,0 C40.8741732,0 42.2289449,1.3441875 42.2289449,2.9964375 L42.2289449,30.64125 C42.5566299,30.415875 42.9448819,30.2945625 43.3520315,30.2945625 C43.879937,30.2945625 44.376378,30.4986563 44.7497953,30.8690625 L45.4385197,31.5523125 C45.8115591,31.9224375 46.0168819,32.415 46.0168819,32.93925 C46.0168819,33.4635938 45.8114646,33.9561562 45.4385197,34.3260938 L45.1700787,34.5924375 C45.3579213,34.9557188 45.5177953,35.3337188 45.6470551,35.720625 L46.0207559,35.720625 Z M13.2791811,4.85428125 L40.811622,4.85428125 L40.811622,2.9964375 C40.811622,2.11959375 40.0926614,1.40625 39.2089134,1.40625 L14.8818898,1.40625 C13.9981417,1.40625 13.2791811,2.11959375 13.2791811,2.9964375 L13.2791811,4.85428125 Z M13.2791811,40.877625 C13.2791811,41.7544688 13.9981417,42.4678125 14.8818898,42.4678125 L30.3840945,42.4678125 C30.4749921,42.2991563 30.5914961,42.1429688 30.731622,42.0039375 L30.8735433,41.8633125 C30.6653858,41.4609375 30.491811,41.0408438 30.3558425,40.6095937 L30.1492913,40.6095937 C29.2133858,40.6095937 28.4273386,39.9608437 28.223811,39.0928125 L13.2791811,39.0928125 L13.2791811,40.877625 Z M46.580126,38.6483437 L46.580126,37.6821562 C46.580126,37.3760625 46.3292598,37.1271562 46.0207559,37.1271562 L45.4515591,37.1271562 C44.9492598,37.1271562 44.4974173,36.7965937 44.3528504,36.3231562 C44.2224567,35.8959375 44.0467087,35.4803437 43.8307087,35.0877187 C43.5887244,34.6483125 43.6697953,34.0928437 44.0280945,33.7371562 L44.436378,33.3319687 C44.5417323,33.2275312 44.5996535,33.0882187 44.5996535,32.9395312 C44.5996535,32.7908437 44.5416378,32.6513437 44.436378,32.5469062 L43.7476535,31.86375 C43.640315,31.7573437 43.5035906,31.7010937 43.3520315,31.7010937 C43.200378,31.7010937 43.0636535,31.75725 42.9565039,31.8636562 L42.548315,32.2686562 C42.3305197,32.4844687 42.0415748,32.60325 41.7344882,32.60325 C41.5495748,32.60325 41.3657953,32.5580625 41.2021417,32.4725625 C41.1898583,32.466375 41.1777638,32.46 41.1659528,32.4531562 C40.7767559,32.2440937 40.3649764,32.0736562 39.9417638,31.9463437 C39.4646929,31.8029062 39.1315276,31.3545937 39.1315276,30.8562187 L39.1315276,30.2915625 C39.1315276,29.9854687 38.8806614,29.7364687 38.5721575,29.7364687 L37.5978898,29.7364687 C37.2893858,29.7364687 37.0385197,29.9854687 37.0385197,30.2915625 L37.0385197,30.8195625 C37.0385197,31.327125 36.6974173,31.7776875 36.2089134,31.9154062 C35.7649134,32.04075 35.3327244,32.2133437 34.9249134,32.4282187 C34.7594646,32.5154062 34.579937,32.5598437 34.391811,32.5598437 C34.0890709,32.5598437 33.792189,32.4375937 33.5775118,32.2246875 L33.2135433,31.8635625 C33.1062047,31.7571562 32.9694803,31.7009062 32.8179213,31.7009062 C32.6663622,31.7009062 32.5296378,31.7570625 32.4223937,31.8635625 L31.7334803,32.5469062 C31.6264252,32.6532187 31.5697323,32.7889687 31.5697323,32.9394375 C31.5697323,33.0898125 31.6263307,33.2254687 31.7334803,33.3316875 L32.060315,33.6559687 C32.4233386,34.0165312 32.5020472,34.5764062 32.2518425,35.0176875 C32.0177953,35.4306562 31.8290079,35.8695937 31.6907717,36.3219375 C31.5460157,36.7959375 31.0922835,37.1269687 30.5873386,37.1269687 L30.1490079,37.1269687 C29.8405039,37.1269687 29.5896378,37.375875 29.5896378,37.6819687 L29.5896378,38.6485312 C29.5896378,38.954625 29.8405039,39.2035312 30.1490079,39.2035312 L30.5531339,39.2035312 C31.0658268,39.2035312 31.5204094,39.5415 31.6586457,40.0254375 C31.792252,40.4919375 31.9793386,40.945125 32.2144252,41.371875 C32.4553701,41.8094062 32.3734488,42.3634687 32.0150551,42.71925 L31.7333858,42.998625 C31.6571339,43.0742812 31.6064882,43.1648437 31.583622,43.2649687 C31.5811654,43.2835312 31.5779528,43.3018125 31.5739843,43.3199062 C31.5711496,43.34325 31.5696378,43.3669687 31.5696378,43.3910625 C31.5696378,43.5414375 31.6262362,43.6770937 31.7334803,43.7834062 L32.4222992,44.4670312 C32.5294488,44.57325 32.6662677,44.6295 32.8178268,44.6295 C32.9694803,44.6295 33.1062047,44.5733437 33.2133543,44.4669375 L33.4948346,44.1876562 C33.7097953,43.9744687 34.0068661,43.852125 34.3097953,43.852125 C34.4991496,43.852125 34.6868031,43.8996562 34.8527244,43.9895625 C35.2831181,44.223 35.739874,44.4085312 36.2103307,44.5410937 C36.6978898,44.6781562 37.0384252,45.1291875 37.0384252,45.6379687 L37.0384252,46.0389375 C37.0384252,46.3450312 37.2892913,46.5939375 37.5977953,46.5939375 L38.572063,46.5939375 C38.8805669,46.5939375 39.1314331,46.3450312 39.1314331,46.0389375 L39.1314331,45.6040312 C39.1314331,45.1030312 39.4650709,44.6528437 39.9428031,44.5092187 C40.3987087,44.3721562 40.8411024,44.18475 41.2573228,43.9524375 C41.4273071,43.8576562 41.6201575,43.8076875 41.8152756,43.8076875 C42.1225512,43.8076875 42.4115906,43.9264687 42.6293858,44.1422812 L42.9564094,44.4669375 C43.0635591,44.5731562 43.200378,44.6294062 43.351937,44.6294062 C43.5034961,44.6294062 43.640315,44.57325 43.7475591,44.46675 L44.4362835,43.7834062 C44.5434331,43.6770937 44.600126,43.5413437 44.600126,43.3909687 C44.600126,43.2405937 44.5435276,43.1048437 44.436189,42.9984375 L44.0722205,42.6373125 C43.7182677,42.286125 43.6338898,41.736375 43.8669921,41.300625 C44.083748,40.8955312 44.2577008,40.4668125 44.3840315,40.0261875 C44.5227402,39.5417812 44.9768504,39.2033437 45.4884094,39.2033437 L46.0207559,39.2033437 C46.3292598,39.2033437 46.580126,38.9544375 46.580126,38.6483437 Z"></path>
                                </g>
                            </g>
                        </g>
                    </g>
                </g>
            </g>
        </g>
    </g>
</svg>