<svg width="35px" height="40px" viewBox="0 0 35 40" version="1.1" xmlns="http://www.w3.org/2000/svg" xmlns:xlink="http://www.w3.org/1999/xlink">
    <g stroke="none" stroke-width="1" fill="none" fill-rule="evenodd">
        <g transform="translate(-363.000000, -7504.000000)" fill="#1D1D1D">
            <g transform="translate(0.000000, 6904.000000)">
                <g transform="translate(100.000000, 600.000000)">
                    <g transform="translate(263.000000, 0.000000)">
                        <path d="M17.5,0 C16.9679227,0 16.4506178,0.111538108 15.9929725,0.374124614 L1.50702947,8.85425763 C0.569596848,9.40137643 0,10.4355541 0,11.5354788 L0,28.4646195 C0,29.5639464 0.569596848,30.5969245 1.50702947,31.1457424 L5.28998266,33.3593569 C7.12794328,34.2776034 7.80580198,34.263437 8.64235601,34.263437 C11.3636222,34.263437 12.9173993,32.5896575 12.9173993,29.6804714 L12.9173993,12.9696205 C12.9173993,12.7333729 12.7156422,12.5642684 12.4868195,12.5642684 L10.6722347,12.5642684 C10.4397184,12.5642684 10.2416509,12.7333729 10.2416509,12.9696205 L10.2416509,29.6804714 C10.2416509,30.9699519 8.91669644,32.2667161 6.76625699,31.176966 L2.82952805,28.8387442 C2.69051105,28.761926 2.58347909,28.6263419 2.58347909,28.4646195 L2.58347909,11.5354788 C2.58347909,11.3747554 2.68928115,11.2115385 2.82952805,11.1302289 L17.284712,2.68122116 C17.4200354,2.60240509 17.5811944,2.60240509 17.7152919,2.68122116 L32.1704758,11.1302289 C32.3082629,11.2140319 32.4165209,11.3698667 32.4165209,11.5354788 L32.4165209,28.4646195 C32.4165209,28.6263419 32.3365079,28.791954 32.201231,28.8698734 L17.7152919,37.3188811 C17.5910375,37.3937052 17.4200354,37.3937052 17.284712,37.3188811 L13.5632691,35.0741373 C13.4525475,35.0082921 13.3012315,35.0132791 13.1941996,35.0741373 C12.1669613,35.6644555 11.9738134,35.7330932 11.0105452,36.0718017 C10.7731133,36.1556047 10.412653,36.2860012 11.1335697,36.6953414 L15.9929725,39.5947501 C16.4555374,39.866111 16.9710033,40 17.5,40 C18.03638,40 18.5444665,39.866111 19.0070314,39.5947501 L33.4929705,31.1457424 C34.430407,30.5930349 35,29.5639464 35,28.4646195 L35,11.5354788 C35,10.4355541 34.430407,9.40367327 33.4929705,8.85425763 L19.0070314,0.374124614 C18.5530758,0.111538108 18.0320812,0 17.5,0 L17.5,0 Z M21.3752206,12.0968624 C17.2502633,12.0968624 14.7934984,13.8763947 14.7934984,16.835761 C14.7934984,20.0461432 17.231811,20.9281752 21.1906858,21.3252446 C25.927068,21.7952464 26.2961337,22.5001939 26.2961337,23.4452788 C26.2961337,25.084539 25.0068539,25.7835006 21.9595801,25.7835006 C18.1311091,25.7835006 17.2896316,24.8146726 17.0079079,22.8840958 C16.9747357,22.6770778 16.8172237,22.5099712 16.6080871,22.5099712 L14.7319881,22.5099712 C14.5007056,22.5099712 14.3014082,22.7115972 14.3014082,22.9464486 C14.3014082,25.4176588 15.6275926,28.3401145 21.9595801,28.3401145 C26.5434125,28.3401145 29.187172,26.5161872 29.187172,23.3205732 C29.187172,20.1525921 27.0514952,19.3022831 22.6054498,18.7063802 C18.1126529,18.1037912 17.6845367,17.8088838 17.6845367,16.742283 C17.6845367,15.8618438 18.0474529,14.6845032 21.3752206,14.6845032 C24.3474514,14.6845032 25.4460469,15.3342795 25.896309,17.3658227 C25.9356773,17.5567747 26.1017598,17.7087158 26.2961337,17.7087158 L28.1722327,17.7087158 C28.2878739,17.7087158 28.3998255,17.6368847 28.479792,17.5527827 C28.5585247,17.4629938 28.6138855,17.3618307 28.6028126,17.2411132 C28.3124796,13.7424073 26.0107203,12.0968624 21.3752206,12.0968624 L21.3752206,12.0968624 Z"></path>
                    </g>
                </g>
            </g>
        </g>
    </g>
</svg>