<svg width="45px" height="40px" viewBox="0 0 45 40" version="1.1" xmlns="http://www.w3.org/2000/svg" xmlns:xlink="http://www.w3.org/1999/xlink">
    <g stroke="none" stroke-width="1" fill="none" fill-rule="evenodd">
        <g transform="translate(-422.000000, -7504.000000)" fill="#1D1D1D" fill-rule="nonzero">
            <g transform="translate(0.000000, 6904.000000)">
                <g transform="translate(100.000000, 600.000000)">
                    <g transform="translate(322.000000, 0.000000)">
                        <g>
                            <g>
                                <path d="M45,20.0045777 C45,22.9709316 41.285161,25.7907988 35.598247,27.5394827 C36.9282511,33.3440146 36.3503873,37.9674983 33.7729311,39.4506752 C33.1675499,39.7985809 32.4704444,39.9633783 31.6999592,39.9633783 C29.1775377,39.9633783 25.8754586,38.1872282 22.5366898,35.0926986 C19.1979209,38.205539 15.8958418,40 13.3734203,40 C12.6029352,40 11.9058296,39.8352026 11.3096209,39.4872969 C8.72299225,38.0041199 8.13595597,33.3714809 9.45678761,27.5486381 C3.73318386,25.7999542 -2.13162821e-14,22.980087 -2.13162821e-14,20.0045777 C-2.13162821e-14,17.0382238 3.71483897,14.227512 9.42009784,12.4696727 C8.09009376,6.66514076 8.6679576,2.04165713 11.2454138,0.558480201 C11.8507949,0.210574502 12.5479005,0.0457770657 13.3183857,0.0457770657 L13.3183857,2.0874342 C12.8964533,2.0874342 12.5387281,2.1606775 12.2635548,2.32547494 C11.0252752,3.04875257 10.4932735,5.76791028 10.9243783,9.2652781 C11.0344476,10.1167315 11.1903791,11.0048066 11.4013453,11.9203479 C13.1991439,11.4717327 15.1620465,11.1329824 17.2350183,10.9132525 C18.4549531,9.21950103 19.739095,7.69054704 21.0232369,6.3447013 C18.0330208,3.58892195 15.2170811,2.07827878 13.3183857,2.07827878 L13.3183857,0.0366216526 C15.8408072,0.0366216526 19.1428863,1.8127718 22.4816551,4.90730144 C25.820424,1.79446098 29.1225031,2.84217094e-14 31.6449246,2.84217094e-14 L31.6449246,2.04165713 C29.7370567,2.04165713 26.9302894,3.56145571 23.9400734,6.33554589 C25.2333877,7.68139162 26.5175296,9.21950103 27.7558092,10.9132525 C29.8196086,11.1329824 31.7825112,11.4717327 33.5803098,11.9111925 C33.7821035,10.9864958 33.9472075,10.0801099 34.0481044,9.21950103 C34.4700367,5.72213321 33.9288626,3.00297551 32.6814105,2.28885328 C32.3970648,2.13321126 32.0576845,2.05081254 31.6357521,2.05081254 L31.6357521,0.00915541314 C32.3970648,0.00915541314 33.0941704,0.17395285 33.6903791,0.521858549 C36.2770077,2.00503548 36.864044,6.63767453 35.5432124,12.4605173 C41.2668161,14.2092012 45,17.0290684 45,20.0045777 Z M33.0574806,13.8979171 C31.8558907,13.6049439 30.5992662,13.3669032 29.2967795,13.1746395 C29.7462291,13.8704509 30.1956788,14.5845731 30.6176111,15.3170062 C31.0487159,16.0494392 31.4431309,16.7818723 31.819201,17.5143053 C32.296168,16.2966354 32.7181003,15.0789654 33.0574806,13.8979171 Z M28.8565022,23.6484321 C29.5444354,22.449073 30.1773339,21.2222477 30.7551977,19.9954223 C30.1773339,18.7685969 29.5444354,17.550927 28.8473298,16.3515679 C28.1318793,15.1247425 27.3889115,13.962005 26.6275989,12.8725109 C25.2700775,12.7626459 23.8850387,12.698558 22.5,12.698558 C21.1057888,12.698558 19.7207501,12.7626459 18.3540563,12.8816663 C17.5927436,13.9711604 16.8589482,15.1430533 16.1434978,16.3790341 C15.4555646,17.5783932 14.8134937,18.8052186 14.2448023,20.0320439 C14.8226661,21.2588693 15.4555646,22.4765393 16.1526702,23.6758984 C16.8681207,24.9027237 17.6110885,26.0654612 18.3724011,27.1549554 C19.7299225,27.2648203 21.1149613,27.3289082 22.5,27.3289082 C23.8942112,27.3289082 25.2792499,27.2648203 26.6459437,27.1458 C27.4072564,26.0563058 28.1410518,24.8844129 28.8565022,23.6484321 Z M31.819201,22.4582284 C31.4431309,23.1906615 31.0487159,23.9322499 30.6267835,24.664683 C30.2048512,25.4062715 29.7554015,26.1295491 29.3059519,26.8345159 C30.6176111,26.6422522 31.8834081,26.3950561 33.084998,26.1020829 C32.7364452,24.9118791 32.3145128,23.6850538 31.819201,22.4582284 Z M22.5183449,32.2270542 C23.3622095,31.3481346 24.2152466,30.3685054 25.0407664,29.297322 C24.2060742,29.3430991 23.3530371,29.3614099 22.4908276,29.3614099 C21.6377905,29.3614099 20.7939258,29.3339437 19.968406,29.297322 C20.8122707,30.3685054 21.6653078,31.3481346 22.5183449,32.2270542 Z M15.6940481,26.8345159 C15.2445985,26.1387045 14.8043212,25.4245823 14.3732165,24.6921492 C13.9421117,23.9597162 13.5476967,23.2272831 13.1716266,22.4948501 C12.6946596,23.71252 12.2727273,24.93019 11.9333469,26.1112383 C13.1349368,26.4042115 14.3915614,26.6422522 15.6940481,26.8345159 Z M22.4724827,7.78210117 C21.628618,8.66102083 20.7755809,9.64065003 19.9500611,10.7118334 C20.7847534,10.6660563 21.6377905,10.6477455 22.5,10.6477455 C23.3530371,10.6477455 24.1969018,10.6752117 25.0224215,10.7118334 C24.1785569,9.64065003 23.3255198,8.66102083 22.4724827,7.78210117 Z M15.6848757,13.1746395 C14.3732165,13.3669032 13.1074195,13.6140993 11.9058296,13.8979171 C12.2543824,15.0881209 12.6763147,16.3149462 13.1716266,17.5417716 C13.5476967,16.8093385 13.9421117,16.0769055 14.364044,15.3444724 C14.7859764,14.602884 15.235426,13.8796063 15.6848757,13.1746395 Z M7.38381574,24.6372168 C8.18181818,24.975967 9.04402772,25.2872511 9.95209947,25.5710689 C10.4657562,23.7857633 11.1445169,21.9272145 11.9883816,20.0228885 C11.1353445,18.1094072 10.4474113,16.2417029 9.92458214,14.4472419 C9.03485528,14.7310597 8.17264574,15.0331884 7.38381574,15.3719387 C4.1367713,16.7452506 2.0362821,18.5671778 2.0362821,20.0045777 C2.0362821,21.4419776 4.1367713,23.2547494 7.38381574,24.6372168 Z M12.3185895,37.7203021 C12.5937627,37.8759442 12.9423155,37.9583429 13.3550754,37.9674983 C15.2629433,37.9674983 18.0697106,36.4476997 21.0599266,33.6736095 C19.7666123,32.3277638 18.4824704,30.7896544 17.2441908,29.095903 C15.1803914,28.876173 13.2174888,28.5374228 11.4196902,28.0979629 C11.2178965,29.0226596 11.0527925,29.9290455 10.9518956,30.7896544 C10.5299633,34.2870222 11.0711374,37.0061799 12.3185895,37.7203021 Z M34.0756217,30.7438773 C33.9747248,29.8924239 33.8096209,29.0043488 33.5986547,28.0796521 C31.8008561,28.5282673 29.8379535,28.8670176 27.7649817,29.0867475 C26.5450469,30.780499 25.260905,32.309453 23.9767631,33.6552987 C26.9669792,36.411078 29.7829189,37.9217212 31.6816143,37.9217212 C32.1035467,37.9217212 32.4612719,37.8484779 32.7364452,37.6836805 C33.9747248,36.9604028 34.5067265,34.2412451 34.0756217,30.7438773 Z M37.6070118,24.6372168 C40.8540563,23.2639048 42.9545455,21.4419776 42.9637179,20.0045777 C42.9637179,18.5671778 40.8632287,16.754406 37.6161843,15.3719387 C36.8090094,15.0331884 35.9467998,14.7219043 35.0387281,14.4380865 C34.5250713,16.2233921 33.8463106,18.0819409 33.002446,19.9862669 C33.8554831,21.8997482 34.5434162,23.7674525 35.0662454,25.5619135 C35.9559723,25.2780957 36.8181818,24.975967 37.6070118,24.6372168 Z M22.5,24.3298969 C20.1988135,24.3298969 18.3333333,22.4836485 18.3333333,20.2061856 C18.3333333,17.9287227 20.1988135,16.0824742 22.5,16.0824742 C24.8011865,16.0824742 26.6666667,17.9287227 26.6666667,20.2061856 C26.6666667,22.4836485 24.8011865,24.3298969 22.5,24.3298969 Z"></path>
                            </g>
                        </g>
                    </g>
                </g>
            </g>
        </g>
    </g>
</svg>