<svg width="40px" height="40px" viewBox="0 0 40 40" version="1.1" xmlns="http://www.w3.org/2000/svg" xmlns:xlink="http://www.w3.org/1999/xlink">
    <g stroke="none" stroke-width="1" fill="none" fill-rule="evenodd">
        <g transform="translate(-161.000000, -7504.000000)" fill="#1D1D1D">
            <g transform="translate(0.000000, 6904.000000)">
                <g transform="translate(100.000000, 600.000000)">
                    <g transform="translate(61.000000, 0.000000)">
                        <g>
                            <path d="M24.9863086,32.6322154 C25.3005374,33.0823594 25.4925583,33.0477116 25.736869,32.9438029 C25.9811798,32.8398941 38.5510291,28.6332907 38.935036,28.4949422 C39.3190428,28.3564551 39.1969749,28.2352398 39.074872,28.0446943 C38.9526291,27.8543568 34.762691,22.2109622 34.5531119,21.8820335 C34.3437077,21.5531395 34.2389181,21.6223311 33.9071662,21.7262398 L20.5825243,25.1642795 C20.5825243,25.1642448 24.6720799,32.1819675 24.9863086,32.6322154 Z M40,26.8855364 L40,20.279911 C38.5009428,20.6759502 36.6047976,21.1766959 35.8562308,21.3741086 C36.9854816,22.8722877 38.7508848,25.2168928 40,26.8855364 Z M35.8433595,13.2383615 C35.6380125,13.2846279 31.0909295,14.0994928 30.8107679,14.1363949 C30.5307811,14.1734705 30.6240984,14.3308249 30.7360931,14.488214 L34.737473,19.9323578 C34.737473,19.9323578 39.6300887,18.7288064 39.9289278,18.6639848 C39.9530965,18.6586784 39.9768456,18.6531292 39.99993,18.6473719 L39.99993,17.9264618 C39.1106179,16.8082986 36.6878318,13.763801 36.4783576,13.479266 C36.226422,13.1366377 36.0488813,13.1922338 35.8433595,13.2383615 L35.8433595,13.2383615 Z" fill-rule="nonzero"></path>
                            <path d="M7.40412245,4.46287281 C8.3836849,4.41846231 8.47310612,4.64068825 8.90337179,5.27707673 L19.7148492,23.3009709 L33.3090662,20.0536271 C32.5558751,18.9889203 29.1365748,14.1549423 28.8059946,13.6935936 C28.4346356,13.1749276 28.8153891,12.9340701 29.4191737,12.8323423 C30.0228191,12.7304064 35.2242459,11.8597872 35.6699603,11.794941 C36.1158833,11.7300947 36.4690102,11.5726803 37.1932872,12.4433342 C37.5640199,12.8887922 38.8206838,14.4491965 40,15.9120018 L40,7.48125966 C40,5.42047404 39.2661545,3.65831429 37.7987419,2.19498857 C36.3313641,0.731766945 34.5641643,0 32.4975251,0 L7.48915959,0 C5.42252045,0 3.65532061,0.731766945 2.18787321,2.19498857 C1.34623515,3.03458974 0.747113003,3.97241443 0.388349515,5.00839325 C2.83890838,4.80767864 6.71874535,4.49409893 7.40429642,4.46287281 L7.40412245,4.46287281 L7.40412245,4.46287281 Z"></path>
                            <path d="M26.2951304,34.9572369 C25.1492174,35.3026985 24.6352696,35.4742179 23.8888348,34.4376602 C23.3298087,33.6613579 20.3065043,28.24337 18.8242087,25.572428 C16.0187478,26.3034623 10.884487,27.6367184 9.40389565,27.9907283 C7.95888696,28.3361898 7.34170435,27.4741279 7.10438261,26.9428881 C6.93798261,26.5701205 2.70142609,17.4817676 0,11.6504854 L0,32.5375522 C0,34.5932944 0.7336,36.3507116 2.20048696,37.8105308 C3.66747826,39.2700731 5.43405217,40 7.5,40 L32.5,40 C34.5659478,40 36.3325565,39.2700731 37.799513,37.8105308 C39.2664,36.3506424 40,34.5932944 40,32.5375522 L40,30.0840898 C36.9312348,31.2010084 27.0672,34.724495 26.2951304,34.9572369 Z"></path>
                            <path d="M9.46881598,25.9710146 C9.87667647,25.8777923 17.5173654,24.0513601 17.6805306,24.0164148 C17.8436608,23.9814696 17.9484454,23.8884216 17.773688,23.5860506 C17.5988956,23.2836797 7.58866327,6.02520359 7.58866327,6.02520359 C7.49627401,5.86679887 7.52260111,5.8139973 7.27151603,5.82718026 C7.04766588,5.83907282 1.38360413,6.34386142 0.0722773065,6.45323112 C0.03362466,6.73014293 0.00942747476,7.00897289 0,7.28843061 C1.33119435,10.0105365 8.97177856,25.7496596 9.01458628,25.8778272 C9.06116499,26.0175386 9.06116499,26.0640626 9.46881598,25.9710146 L9.46881598,25.9710146 Z"></path>
                        </g>
                    </g>
                </g>
            </g>
        </g>
    </g>
</svg>