<?xml version="1.0" encoding="UTF-8"?>
<svg width="40px" height="40px" viewBox="0 0 40 40" version="1.1" xmlns="http://www.w3.org/2000/svg" xmlns:xlink="http://www.w3.org/1999/xlink">
    <!-- Generator: Sketch 56.2 (81672) - https://sketch.com -->
    <title>Group 19</title>
    <desc>Created with Sketch.</desc>
    <g id="Page-1" stroke="none" stroke-width="1" fill="none" fill-rule="evenodd">
        <g id="LP-Frontend" transform="translate(-1132.000000, -7216.000000)">
            <g id="Group-19" transform="translate(1132.000000, 7216.000000)">
                <g id="Group-15" fill="#ffffff">
                    <path d="M18.8510229,38.803083 L18.6947381,38.9127745 C17.9565915,39.4308566 16.9447053,39.2976393 16.3658,38.606164 L16.2432306,38.4597607 C15.7024463,37.8138191 14.8148811,37.5759968 14.0235774,37.8650064 L13.8442276,37.9305107 C12.9971432,38.2398932 12.0542154,37.8493197 11.6740027,37.0315741 L11.5935018,36.8584361 C11.2383262,36.0945392 10.4425571,35.6351017 9.60341514,35.709459 L9.41322276,35.7263122 C8.51492797,35.8059112 7.70521754,35.1845985 7.54960845,34.2963107 L7.51666196,34.108237 C7.37129976,33.2784431 6.72155694,32.6287002 5.89176299,32.483338 L5.70368934,32.4503915 C4.81540147,32.2947825 4.1940888,31.485072 4.27368778,30.5867772 L4.29054096,30.3965849 C4.36489833,29.5574429 3.90546078,28.7616738 3.14156388,28.4064982 L2.96842586,28.3259973 C2.15068026,27.9457846 1.76010679,27.0028568 2.0694893,26.1557724 L2.13499363,25.9764226 C2.42400325,25.1851189 2.18618087,24.2975537 1.54023933,23.7567694 L1.39383601,23.6342 C0.702360695,23.0552947 0.569143357,22.0434085 1.08722549,21.3052619 L1.19691696,21.1489771 C1.68088329,20.4594376 1.68088329,19.5405624 1.19691696,18.8510229 L1.08722549,18.6947381 C0.569143357,17.9565915 0.702360695,16.9447053 1.39383601,16.3658 L1.54023933,16.2432306 C2.18618087,15.7024463 2.42400325,14.8148811 2.13499363,14.0235774 L2.0694893,13.8442276 C1.76010679,12.9971432 2.15068026,12.0542154 2.96842586,11.6740027 L3.14156388,11.5935018 C3.90546078,11.2383262 4.36489833,10.4425571 4.29054096,9.60341514 L4.27368778,9.41322276 C4.1940888,8.51492797 4.81540147,7.70521754 5.70368934,7.54960845 L5.89176299,7.51666196 C6.72155694,7.37129976 7.37129976,6.72155694 7.51666196,5.89176299 L7.54960845,5.70368934 C7.70521754,4.81540147 8.51492797,4.1940888 9.41322276,4.27368778 L9.60341514,4.29054096 C10.4425571,4.36489833 11.2383262,3.90546078 11.5935018,3.14156388 L11.6740027,2.96842586 C12.0542154,2.15068026 12.9971432,1.76010679 13.8442276,2.0694893 L14.0235774,2.13499363 C14.8148811,2.42400325 15.7024463,2.18618087 16.2432306,1.54023933 L16.3658,1.39383601 C16.9447053,0.702360695 17.9565915,0.569143357 18.6947381,1.08722549 L18.8510229,1.19691696 C19.5405624,1.68088329 20.4594376,1.68088329 21.1489771,1.19691696 L21.3052619,1.08722549 C22.0434085,0.569143357 23.0552947,0.702360695 23.6342,1.39383601 L23.7567694,1.54023933 C24.2975537,2.18618087 25.1851189,2.42400325 25.9764226,2.13499363 L26.1557724,2.0694893 C27.0028568,1.76010679 27.9457846,2.15068026 28.3259973,2.96842586 L28.4064982,3.14156388 C28.7616738,3.90546078 29.5574429,4.36489833 30.3965849,4.29054096 L30.5867772,4.27368778 C31.485072,4.1940888 32.2947825,4.81540147 32.4503915,5.70368934 L32.483338,5.89176299 C32.6287002,6.72155694 33.2784431,7.37129976 34.108237,7.51666196 L34.2963107,7.54960845 C35.1845985,7.70521754 35.8059112,8.51492797 35.7263122,9.41322276 L35.709459,9.60341514 C35.6351017,10.4425571 36.0945392,11.2383262 36.8584361,11.5935018 L37.0315741,11.6740027 C37.8493197,12.0542154 38.2398932,12.9971432 37.9305107,13.8442276 L37.8650064,14.0235774 C37.5759968,14.8148811 37.8138191,15.7024463 38.4597607,16.2432306 L38.606164,16.3658 C39.2976393,16.9447053 39.4308566,17.9565915 38.9127745,18.6947381 L38.803083,18.8510229 C38.3191167,19.5405624 38.3191167,20.4594376 38.803083,21.1489771 L38.9127745,21.3052619 C39.4308566,22.0434085 39.2976393,23.0552947 38.606164,23.6342 L38.4597607,23.7567694 C37.8138191,24.2975537 37.5759968,25.1851189 37.8650064,25.9764226 L37.9305107,26.1557724 C38.2398932,27.0028568 37.8493197,27.9457846 37.0315741,28.3259973 L36.8584361,28.4064982 C36.0945392,28.7616738 35.6351017,29.5574429 35.709459,30.3965849 L35.7263122,30.5867772 C35.8059112,31.485072 35.1845985,32.2947825 34.2963107,32.4503915 L34.108237,32.483338 C33.2784431,32.6287002 32.6287002,33.2784431 32.483338,34.108237 L32.4503915,34.2963107 C32.2947825,35.1845985 31.485072,35.8059112 30.5867772,35.7263122 L30.3965849,35.709459 C29.5574429,35.6351017 28.7616738,36.0945392 28.4064982,36.8584361 L28.3259973,37.0315741 C27.9457846,37.8493197 27.0028568,38.2398932 26.1557724,37.9305107 L25.9764226,37.8650064 C25.1851189,37.5759968 24.2975537,37.8138191 23.7567694,38.4597607 L23.6342,38.606164 C23.0552947,39.2976393 22.0434085,39.4308566 21.3052619,38.9127745 L21.1489771,38.803083 C20.4594376,38.3191167 19.5405624,38.3191167 18.8510229,38.803083 Z" id="Star"></path>
                </g>
                <text id="🤘" font-family="AppleColorEmoji, Apple Color Emoji" font-size="22" font-weight="normal" fill="#FFFFFF">
                    <tspan x="8" y="28">🤘</tspan>
                </text>
            </g>
        </g>
    </g>
</svg>