<svg xmlns="http://www.w3.org/2000/svg" width="40" height="40" viewBox="0 0 40 40">
    <g fill="none" fill-rule="evenodd">
        <path fill="#FFE769" d="M18.851 38.803l-.156.11a1.736 1.736 0 0 1-2.33-.307l-.122-.146a2 2 0 0 0-2.22-.595l-.179.066a1.736 1.736 0 0 1-2.17-.9l-.08-.173a2 2 0 0 0-1.99-1.149l-.19.017a1.736 1.736 0 0 1-1.864-1.43l-.033-.188a2 2 0 0 0-1.625-1.625l-.188-.033a1.736 1.736 0 0 1-1.43-1.863l.017-.19a2 2 0 0 0-1.15-1.99l-.173-.081a1.736 1.736 0 0 1-.899-2.17l.066-.18a2 2 0 0 0-.595-2.22l-.146-.122a1.736 1.736 0 0 1-.307-2.329l.11-.156a2 2 0 0 0 0-2.298l-.11-.156a1.736 1.736 0 0 1 .307-2.33l.146-.122a2 2 0 0 0 .595-2.22l-.066-.179c-.309-.847.082-1.79.9-2.17l.173-.08a2 2 0 0 0 1.149-1.99l-.017-.19a1.736 1.736 0 0 1 1.43-1.864l.188-.033a2 2 0 0 0 1.625-1.625l.033-.188a1.736 1.736 0 0 1 1.863-1.43l.19.017a2 2 0 0 0 1.99-1.15l.081-.173a1.736 1.736 0 0 1 2.17-.899l.18.066a2 2 0 0 0 2.22-.595l.122-.146a1.736 1.736 0 0 1 2.329-.307l.156.11a2 2 0 0 0 2.298 0l.156-.11a1.736 1.736 0 0 1 2.33.307l.122.146a2 2 0 0 0 2.22.595l.179-.066c.847-.309 1.79.082 2.17.9l.08.173a2 2 0 0 0 1.99 1.149l.19-.017a1.736 1.736 0 0 1 1.864 1.43l.033.188a2 2 0 0 0 1.625 1.625l.188.033c.889.155 1.51.965 1.43 1.863l-.017.19a2 2 0 0 0 1.15 1.99l.173.081a1.736 1.736 0 0 1 .899 2.17l-.066.18a2 2 0 0 0 .595 2.22l.146.122c.692.579.825 1.59.307 2.329l-.11.156a2 2 0 0 0 0 2.298l.11.156c.518.738.385 1.75-.307 2.33l-.146.122a2 2 0 0 0-.595 2.22l.066.179c.309.847-.082 1.79-.9 2.17l-.173.08a2 2 0 0 0-1.149 1.99l.017.19a1.736 1.736 0 0 1-1.43 1.864l-.188.033a2 2 0 0 0-1.625 1.625l-.033.188a1.736 1.736 0 0 1-1.863 1.43l-.19-.017a2 2 0 0 0-1.99 1.15l-.081.173a1.736 1.736 0 0 1-2.17.899l-.18-.066a2 2 0 0 0-2.22.595l-.122.146a1.736 1.736 0 0 1-2.329.307l-.156-.11a2 2 0 0 0-2.298 0z"/>
        <path fill="#1D1D1D" fill-rule="nonzero" d="M28.292 17.773c.003.049-.001.099-.014.148l-1.11 4.4a.504.504 0 0 1-.487.379l-6.662.033h-6.664a.504.504 0 0 1-.49-.379l-1.11-4.417a.495.495 0 0 1-.013-.152A1.053 1.053 0 0 1 11 16.783c0-.579.475-1.05 1.06-1.05.584 0 1.06.471 1.06 1.05 0 .326-.151.618-.387.81l1.39 1.388a1.901 1.901 0 0 0 2.844-.19l2.284-2.999a1.041 1.041 0 0 1-.31-.742c0-.579.475-1.05 1.059-1.05s1.06.471 1.06 1.05c0 .28-.113.536-.295.724l.002.003 2.268 3.007a1.899 1.899 0 0 0 2.842.202l1.4-1.385a1.045 1.045 0 0 1-.397-.818c0-.579.476-1.05 1.06-1.05.585 0 1.06.471 1.06 1.05 0 .457-.296.846-.708.99zM27.06 24.3c0-.276-.226-.5-.505-.5H13.501a.502.502 0 0 0-.505.5v1.2c0 .276.226.5.505.5h13.054a.502.502 0 0 0 .505-.5v-1.2z"/>
    </g>
</svg>
