<svg width="34px" height="48px" viewBox="0 0 34 48" version="1.1" xmlns="http://www.w3.org/2000/svg" xmlns:xlink="http://www.w3.org/1999/xlink">
    <g stroke="none" stroke-width="1" fill="none" fill-rule="evenodd">
        <g transform="translate(-353.000000, -7608.000000)" fill="#1D1D1D" fill-rule="nonzero">
            <g transform="translate(353.000000, 7608.000000)">
                <path d="M26.6436779,1.77721041 L23.8217179,1.77721041 L26.7563826,4.96203641 L26.7563826,6.47802685 L20.7117095,6.47802685 L20.7117095,4.70310282 L23.6458027,4.70310282 L20.7117095,1.51816251 L20.7117095,-3.69482223e-13 L26.6436779,-3.69482223e-13 L26.6436779,1.77721041 Z M19.5135653,1.77721041 L16.6916053,1.77721041 L19.6261557,4.96203641 L19.6261557,6.47802685 L13.5814826,6.47802685 L13.5814826,4.70310282 L16.5159186,4.70310282 L13.5814826,1.51816251 L13.5814826,-3.69482223e-13 L19.5135653,-3.69482223e-13 L19.5135653,1.77721041 Z M12.4531787,1.849346 L9.40809548,1.849346 L9.40809548,4.62879517 L12.4531787,4.62879517 L12.4531787,6.47802685 L7.24384602,6.47802685 L7.24384602,-3.55271368e-13 L12.4531787,-3.55271368e-13 L12.4531787,1.849346 Z M3.09434863,44.1450333 L1.1738166e-11,9.43535711 L34,9.43535711 L30.9027937,44.1394316 L16.9791965,48 L3.09434863,44.1450333 Z M17.0256043,40.3327359 L25.7367827,37.918052 L25.8007934,37.1989826 L26.5271633,29.0827454 L27.5712624,17.3743867 L27.6733367,16.2322209 L17.0148596,16.2322209 L17.0001143,16.2322209 L6.35238191,16.2322209 L6.4541133,17.3743867 L6.64808875,19.5325096 L6.73347453,20.4893635 L6.74707682,20.4893635 L17.0001143,20.4893635 L23.0214692,20.4893635 L22.6324895,24.8485934 L17.0001143,24.8490507 L11.9385779,24.8490507 L12.0403093,25.9912165 L12.2343991,28.1493393 L12.3196705,29.1060789 L12.3332728,29.1060789 L17.0001143,29.1060789 L17.0001143,29.105393 L22.2545169,29.105393 L21.7581711,34.6263373 L17.010859,35.9078585 L17.010859,40.3368233 L17.0256043,40.3333937 L17.0059439,40.338881 L8.28699277,37.918052 L7.69077828,31.2341358 L9.66002353,31.2341358 L11.9633821,31.2341358 L12.2665187,34.6291953 L17.0069726,35.909459 L17.0256043,35.9042003 L17.0256043,40.3327359 Z M17.0001143,24.8490507 L17.0001143,29.0955615 L17.0001143,24.8490507 Z"></path>
            </g>
        </g>
    </g>
</svg>