<?xml version="1.0" encoding="UTF-8"?>
<svg width="8px" height="8px" viewBox="0 0 8 8" version="1.1" xmlns="http://www.w3.org/2000/svg" xmlns:xlink="http://www.w3.org/1999/xlink">
    <g stroke="none" stroke-width="1" fill="none" fill-rule="evenodd">
        <g transform="translate(-173.000000, -2086.000000)" fill="#B9B9BF">
            <g transform="translate(169.000000, 2082.000000)">
                <g transform="translate(2.000000, 2.000000)">
                    <g transform="translate(6.000000, 6.000000) rotate(-45.000000) translate(-6.000000, -6.000000) translate(2.000000, 2.000000)">
                        <path d="M4.66666667,3.33333333 L7.5,3.33333333 C7.77614237,3.33333333 8,3.55719096 8,3.83333333 L8,4.16666667 C8,4.44280904 7.77614237,4.66666667 7.5,4.66666667 L4.66666667,4.66666667 L4.66666667,7.5 C4.66666667,7.77614237 4.44280904,8 4.16666667,8 L3.83333333,8 C3.55719096,8 3.33333333,7.77614237 3.33333333,7.5 L3.33333333,4.66666667 L0.5,4.66666667 C0.223857625,4.66666667 -1.30165146e-15,4.44280904 -1.30165146e-15,4.16666667 L-1.30165146e-15,3.83333333 C-1.30165146e-15,3.55719096 0.223857625,3.33333333 0.5,3.33333333 L3.33333333,3.33333333 L3.33333333,0.5 C3.33333333,0.223857625 3.55719096,0 3.83333333,0 L4.16666667,0 C4.44280904,0 4.66666667,0.223857625 4.66666667,0.5 L4.66666667,3.33333333 Z"></path>
                    </g>
                </g>
            </g>
        </g>
    </g>
</svg>