<svg width="34px" height="48px" viewBox="0 0 34 48" version="1.1" xmlns="http://www.w3.org/2000/svg" xmlns:xlink="http://www.w3.org/1999/xlink">
    <g stroke="none" stroke-width="1" fill="none" fill-rule="evenodd">
        <g transform="translate(-306.000000, -7608.000000)" fill-rule="nonzero">
            <g transform="translate(306.000000, 7608.000000)">
                <g>
                    <path d="M3.1242349,44.1446857 L0.0357114094,9.44525714 L33.9729597,9.44525714 L30.8812416,44.1390857 L16.9835705,47.9984 L3.1242349,44.1446857 Z M3.19326174,0.0154285714 L5.35237584,0.0154285714 L5.35237584,2.15211429 L7.32745638,2.15211429 L7.32745638,0.0154285714 L9.48668456,0.0154285714 L9.48668456,6.48605714 L7.32757047,6.48605714 L7.32757047,4.31942857 L5.35260403,4.31942857 L5.35260403,6.48605714 L3.19326174,6.48605714 L3.19326174,0.0154285714 Z M12.3257987,2.16114286 L10.4249933,2.16114286 L10.4249933,0.0154285714 L16.3866309,0.0154285714 L16.3866309,2.16114286 L14.4850268,2.16114286 L14.4850268,6.48605714 L12.3259128,6.48605714 L12.3259128,2.16114286 L12.3257987,2.16114286 Z M17.3328121,0.0154285714 L19.5842282,0.0154285714 L20.9689866,2.28902857 L22.352604,0.0154285714 L24.6047047,0.0154285714 L24.6047047,6.48605714 L22.4544899,6.48605714 L22.4544899,3.27885714 L20.9688725,5.57942857 L20.9317919,5.57942857 L19.4453758,3.27885714 L19.4453758,6.48605714 L17.332698,6.48605714 L17.332698,0.0154285714 L17.3328121,0.0154285714 Z M25.6792416,0.0154285714 L27.8389262,0.0154285714 L27.8389262,4.3472 L30.8751946,4.3472 L30.8751946,6.48594286 L25.6791275,6.48594286 L25.6791275,0.0154285714 L25.6792416,0.0154285714 Z" fill="#1D1D1D"></path>
                    <path d="M17.0043356,25.152 L25.7205436,25.152 L26.8653624,25.152 L26.7617651,26.2947429 L25.7633289,37.4987429 L25.6995503,38.2176 L16.9896174,40.6356571 L16.9896174,36.208 L21.7281678,34.9268571 L22.2212819,29.4075429 L17.0043356,29.4075429 L7.49677181,29.4075429 L6.45258389,17.68 L6.35081208,16.5381714 L16.9896174,16.5381714 L17.0043356,16.5381714 L27.6324161,16.5381714 L27.5307584,17.68 L27.337255,19.8374857 L27.2520268,20.7940571 L27.2383356,20.7940571 L17.0043356,20.7940571 L10.9939799,20.7940571 L11.3823557,25.152 L17.0043356,25.152 Z" fill="#FAFAFA"></path>
                    <polygon fill="#FAFAFA" points="17.0043356 36.2043429 16.9857383 36.2096 12.2540336 34.9297143 11.9514564 31.5356571 9.65234899 31.5356571 7.68662416 31.5356571 8.28185235 38.2176 16.9847114 40.6377143 17.0043356 40.6322286"></polygon>
                </g>
            </g>
        </g>
    </g>
</svg>