<svg width="48px" height="48px" viewBox="0 0 48 48" version="1.1" xmlns="http://www.w3.org/2000/svg" xmlns:xlink="http://www.w3.org/1999/xlink">
    <g stroke="none" stroke-width="1" fill="none" fill-rule="evenodd">
        <g transform="translate(-233.000000, -7608.000000)" fill="#1D1D1D" fill-rule="nonzero">
            <g transform="translate(233.000000, 7608.000000)">
                <path d="M0,48 L0,0 L48,0 L48,48 L0,48 Z M31.8004588,36.3679375 L28.4413906,38.5795 C29.696078,41.0246875 31.9500154,43 35.9192218,43 C39.9771033,43 43,40.9196875 43,37.1239375 C43,33.6011875 40.9512066,32.0340625 37.3181718,30.49975 L36.2500993,30.04825 C34.417038,29.2646875 33.622932,28.7528125 33.622932,27.4875625 C33.622932,26.4638125 34.4157145,25.68025 35.6677549,25.68025 C36.8946486,25.68025 37.6861076,26.1908125 38.4180086,27.4875625 L41.7453126,25.378375 C40.337098,22.9345 38.3849208,22.0013125 35.6677549,22.0013125 C31.8520757,22.0013125 29.4101999,24.4084375 29.4101999,27.5715625 C29.4101999,31.00375 31.4603168,32.628625 34.5427714,33.925375 L35.610844,34.376875 C37.5590506,35.2181875 38.5199188,35.731375 38.5199188,37.1764375 C38.5199188,38.3839375 37.5908148,39.25675 35.8199585,39.25675 C33.7116072,39.25675 32.7163277,37.8431875 31.8004588,36.3679375 Z M16.4662726,36.4755625 L13,38.5795 C14.0032205,40.708375 16.464949,43 19.8756342,43 C23.6502846,43 26.2350995,40.98925 26.2350995,36.5700625 L26.2350995,22 L21.8238408,22 L21.8238408,35.8980625 C21.8238408,38.030875 21.0178233,38.5795 19.6175497,38.5795 C18.1537477,38.5795 17.1359686,37.6646875 16.4662726,36.4755625 Z"></path>
            </g>
        </g>
    </g>
</svg>