<svg width="555px" height="394px" viewBox="0 0 555 394" version="1.1" xmlns="http://www.w3.org/2000/svg" xmlns:xlink="http://www.w3.org/1999/xlink">
    <g stroke="none" stroke-width="1" fill="none" fill-rule="evenodd">
        <g transform="translate(-185.000000, -8647.000000)" stroke="#0066FF">
            <path d="M481.328713,8648 C518.732103,8648.87325 545.736359,8651.72665 562.341483,8656.56022 C622.367793,8674.03321 650,8727.76648 650,8773.66028 C650,8831.9409 612.159181,8876.47618 534.150166,8934.8659 C446.623194,9000.3798 332.785118,9041.42904 259.552984,9027.855 C219.148838,9020.36584 186,8986.90463 186,8940.87356 C186,8895.00137 221.166032,8857.78454 264.950327,8852.96245 C282.518526,8851.02761 302.053447,8854.86585 319.452252,8865.14779 C347.352846,8881.63583 358.846341,8906.45718 441.570203,8956.91391 C495.954333,8990.08505 566.731874,9021.59499 667.378705,9035.45173 C686.953722,9038.14676 711.160821,9039.66285 740,9040"></path>
        </g>
    </g>
</svg>