<?xml version="1.0" encoding="UTF-8"?>
<svg width="30px" height="22px" viewBox="0 0 30 22" version="1.1" xmlns="http://www.w3.org/2000/svg" xmlns:xlink="http://www.w3.org/1999/xlink">
    <!-- Generator: Sketch 56.2 (81672) - https://sketch.com -->
    <title>Combined Shape</title>
    <desc>Created with Sketch.</desc>
    <g id="Page-1" stroke="none" stroke-width="1" fill="none" fill-rule="evenodd">
        <g id="LP-Frontend" transform="translate(-862.000000, -2734.000000)" fill="#E0E1E4" fill-rule="nonzero">
            <g id="Group-18" transform="translate(100.000000, 2240.000000)">
                <g id="Group-10" transform="translate(762.000000, 494.000000)">
                    <path d="M26,4 L28,4 C29.1045695,4 30,4.8954305 30,6 L30,20 C30,21.1045695 29.1045695,22 28,22 L6,22 C4.8954305,22 4,21.1045695 4,20 L4,18 L2,18 C0.8954305,18 0,17.1045695 0,16 L0,2 C0,0.8954305 0.8954305,0 2,0 L24,0 C25.1045695,0 26,0.8954305 26,2 L26,4 Z M4,17 L5,17 L24,17 C24.5522847,17 25,16.5522847 25,16 L25,5 L25,4 L25,2 C25,1.44771525 24.5522847,1 24,1 L2,1 C1.44771525,1 1,1.44771525 1,2 L1,16 C1,16.5522847 1.44771525,17 2,17 L4,17 Z M5,18 L5,20 C5,20.5522847 5.44771525,21 6,21 L28,21 C28.5522847,21 29,20.5522847 29,20 L29,6 C29,5.44771525 28.5522847,5 28,5 L26,5 L26,16 C26,17.1045695 25.1045695,18 24,18 L5,18 Z" id="Combined-Shape"></path>
                </g>
            </g>
        </g>
    </g>
</svg>